<svg xmlns="http://www.w3.org/2000/svg" height="48" viewBox="0 96 960 960" width="48"><path d="M132 936q-24 0-42-18t-18-42V276q0-24 18-42t42-18h696q24 0 42 18t18 42v600q0 24-18 42t-42 18H132Zm228-160q17 0 28.5-11.5T400 736q0-17-11.5-28.5T360 696H240q-17 0-28.5 11.5T200 736q0 17 11.5 28.5T240 776h120Zm222-193-29-29q-12-12-28-11.5T497 555q-11 12-11.5 28t11.5 28l64 64q9 9 21 9t21-9l149-149q12-12 12-28t-12-28q-12-12-28.5-12T695 470L582 583Zm-222 33q17 0 28.5-11.5T400 576q0-17-11.5-28.5T360 536H240q-17 0-28.5 11.5T200 576q0 17 11.5 28.5T240 616h120Zm0-160q17 0 28.5-11.5T400 416q0-17-11.5-28.5T360 376H240q-17 0-28.5 11.5T200 416q0 17 11.5 28.5T240 456h120Z"/></svg>