<svg xmlns="http://www.w3.org/2000/svg" viewBox="0 96 960 960">
    <path
        d="M525.129 439.143V267.474q0-13.582 9.027-22.527 9.027-8.946 22.371-8.946h232.236q13.345 0 22.29 8.946 8.946 8.945 8.946 22.527v171.669q0 13.582-9.028 22.527-9.027 8.945-22.371 8.945H556.364q-13.344 0-22.29-8.945-8.945-8.945-8.945-22.527ZM140.001 559.998V267.122q0-13.23 9.027-22.175 9.027-8.946 22.372-8.946h232.236q13.344 0 22.29 8.95 8.945 8.95 8.945 22.179v292.876q0 13.23-9.027 22.175-9.027 8.946-22.371 8.946H171.237q-13.345 0-22.29-8.95-8.946-8.949-8.946-22.179ZM525.129 884.87V591.994q0-13.23 9.027-22.175 9.027-8.946 22.371-8.946h232.236q13.345 0 22.29 8.95 8.946 8.949 8.946 22.179v292.876q0 13.23-9.028 22.175-9.027 8.946-22.371 8.946H556.364q-13.344 0-22.29-8.95-8.945-8.95-8.945-22.179Zm-385.128-.344V712.857q0-13.582 9.027-22.527t22.372-8.945h232.236q13.344 0 22.29 8.945 8.945 8.945 8.945 22.527v171.669q0 13.582-9.027 22.527-9.027 8.946-22.371 8.946H171.237q-13.345 0-22.29-8.946-8.946-8.945-8.946-22.527Zm50.255-343.654h194.36V286.256h-194.36v254.616Zm385.128 324.872h194.36V611.128h-194.36v254.616Zm0-445.383h194.36V286.256h-194.36v134.105ZM190.256 865.744h194.36V731.639h-194.36v134.105Zm194.36-324.872Zm190.768-120.511Zm0 190.767ZM384.616 731.639Z" />
</svg>