<svg xmlns="http://www.w3.org/2000/svg" height="48" viewBox="0 96 960 960" width="48"><path d="M691 976q-78.435 0-133.718-55.282Q502 865.435 502 787q0-78.435 55.282-133.718Q612.565 598 691 598q78.435 0 133.718 55.282Q880 708.565 880 787q0 78.435-55.282 133.718Q769.435 976 691 976Zm11-191.471v-92.487q0-8.042-5.7-13.542T683 673q-8 0-14 5.7t-6 13.3v95q0 5.565 2 10.783Q667 803 671 808l64 66q6 6 14 6t14-6q6-6.032 6-14.074t-6-14.074l-61-61.323ZM180 936q-24.75 0-42.375-17.625T120 876V276q0-26 17-43t43-17h202q7-35 34.5-57.5T480 136q36 0 63.5 22.5T578 216h202q26 0 43 17t17 43v308q-15-9-29.516-15.48Q795.968 562.04 780 557V276h-60v60q0 12.75-8.625 21.375T690 366H270q-12.75 0-21.375-8.625T240 336v-60h-60v600h280q5 15 12 29.5t17 30.5H180Zm300-664q17 0 28.5-11.5T520 232q0-17-11.5-28.5T480 192q-17 0-28.5 11.5T440 232q0 17 11.5 28.5T480 272Z"/></svg>