<svg xmlns="http://www.w3.org/2000/svg" viewBox="0 96 960 960">
    <path
        d="M640.616 726.409q-7.615-7.908-7.615-18.312 0-10.405 7.615-17.687l79.026-79.282H397.179q-10.698 0-17.913-7.249-7.214-7.25-7.214-18t7.214-17.878q7.215-7.128 17.913-7.128h321.643l-80.077-80.077q-7.026-7.025-7.026-17.152t7.963-18.017q7.246-7.599 17.667-7.599 10.42 0 17.779 7.615l119.019 118.773q5.031 5.021 7.262 10.52 2.23 5.499 2.23 11.692 0 6.193-2.23 11.475-2.231 5.282-7.262 10.323L675.41 727.409q-7.23 6.974-17.204 6.667-9.974-.308-17.59-7.667ZM206.411 936q-25.788 0-44.175-18.388-18.388-18.387-18.388-44.175V298.565q0-25.788 18.388-44.176 18.387-18.388 44.175-18.388h248.616q10.698 0 17.913 7.25 7.214 7.249 7.214 17.999t-7.214 17.878q-7.215 7.128-17.913 7.128H206.411q-4.615 0-8.462 3.847-3.846 3.846-3.846 8.462v574.872q0 4.615 3.846 8.462 3.847 3.846 8.462 3.846h248.616q10.698 0 17.913 7.25 7.214 7.249 7.214 17.999t-7.214 17.878Q465.725 936 455.027 936H206.411Z" />
</svg>