<svg xmlns="http://www.w3.org/2000/svg" viewBox="0 96 960 960">
    <path
        d="M400 561.127q-57.749 0-96.438-38.56-38.689-38.561-38.689-96.566 0-57.75 38.689-96.439 38.689-38.688 96.438-38.688t96.438 38.688q38.689 38.689 38.689 96.439 0 58.005-38.689 96.566-38.689 38.56-96.438 38.56ZM131.427 866.408q-13.708 0-22.567-9.035t-8.859-22.247v-48.972q0-31.128 15.667-55.167 15.667-24.038 44.846-37.756 60.256-27.82 116.82-42.448Q333.898 636.155 400 636.155h10.538q5.18 0 10.128.154-4.999 12.256-7.807 23.973-2.808 11.718-4.756 26.128H400q-62.974 0-115.538 13.115t-102.103 38.577q-17.256 8.795-24.679 21.205-7.424 12.411-7.424 26.847v29.999h260.257q3.795 13.743 9.551 26.461 5.756 12.718 13.217 23.794H131.427ZM400 510.872q35.974 0 60.423-24.32 24.449-24.321 24.449-60.551 0-35.975-24.449-60.424-24.449-24.448-60.423-24.448-35.974 0-60.423 24.448-24.449 24.449-24.449 60.424 0 36.23 24.449 60.551 24.449 24.32 60.423 24.32Zm0-84.871Zm10.513 390.152Zm268.597-19.026q31.684 0 53.902-22.38t22.218-53.808q0-31.684-22.252-53.901-22.252-22.218-53.936-22.218-31.427 0-53.773 22.252-22.346 22.251-22.346 53.935 0 31.428 22.38 53.774t53.807 22.346Zm-29.597 44.743q-16.872-4.231-32.872-12.975t-27.795-20.949l-39.051 11.898q-4.752 1.743-9.21-.231-4.458-1.975-6.969-6.795l-9.23-16.358q-3.077-3.769-2.038-8.666 1.038-4.898 4.807-8.333l33-28.539q-4.051-12.974-4.051-29.949 0-16.974 4.051-30.205L527.54 661.46q-3.769-3.435-4.808-8.333-1.038-4.897 2.039-9.051l9.23-16.358q2.51-4.051 6.968-6.025 4.458-1.975 9.211.025l38.666 11.898q11.41-12.462 27.603-21.013 16.192-8.552 33.064-12.782l6.026-44.231q1.266-5.155 5.046-8.488 3.78-3.332 8.979-3.332h19.794q5.639 0 9.422 3.32 3.783 3.321 4.603 8.5l5.897 44.231q16.616 4.23 32.809 12.884 16.192 8.654 27.859 21.065l38.204-12.052q5.026-1.948 9.625.129 4.598 2.076 7.144 6.641l9.487 16.511q2.564 4.026 1.692 8.603-.872 4.576-4.897 8.012l-32.821 29.308q4.308 13.198 4.308 30.189t-4.308 29.811l33.257 28.539q4.153 3.435 4.679 8.525.526 5.09-2.295 9.243l-9.486 16.358q-2.444 4.308-6.802 6.154-4.357 1.846-8.993.103l-38.794-11.898q-12.052 12.205-28.052 20.949-16 8.744-32.616 12.975l-5.897 44.23q-.82 5.179-4.603 8.5-3.783 3.32-9.422 3.32h-19.794q-5.199 0-8.979-3.332-3.78-3.333-5.046-8.488l-6.026-44.23Z" />
</svg>