<svg id="visual" viewBox="0 0 960 540" width="960" height="540" xmlns="http://www.w3.org/2000/svg"
    xmlns:xlink="http://www.w3.org/1999/xlink" version="1.1">
    <path
        d="M0 362L22.8 363C45.7 364 91.3 366 137 365C182.7 364 228.3 360 274 352.7C319.7 345.3 365.3 334.7 411.2 335C457 335.3 503 346.7 548.8 350.2C594.7 353.7 640.3 349.3 686 352.3C731.7 355.3 777.3 365.7 823 368.2C868.7 370.7 914.3 365.3 937.2 362.7L960 360L960 541L937.2 541C914.3 541 868.7 541 823 541C777.3 541 731.7 541 686 541C640.3 541 594.7 541 548.8 541C503 541 457 541 411.2 541C365.3 541 319.7 541 274 541C228.3 541 182.7 541 137 541C91.3 541 45.7 541 22.8 541L0 541Z"
        fill="#3ea34c"></path>
    <path
        d="M0 364L22.8 365.7C45.7 367.3 91.3 370.7 137 376.3C182.7 382 228.3 390 274 393.5C319.7 397 365.3 396 411.2 400.2C457 404.3 503 413.7 548.8 409.7C594.7 405.7 640.3 388.3 686 380.7C731.7 373 777.3 375 823 380.3C868.7 385.7 914.3 394.3 937.2 398.7L960 403L960 541L937.2 541C914.3 541 868.7 541 823 541C777.3 541 731.7 541 686 541C640.3 541 594.7 541 548.8 541C503 541 457 541 411.2 541C365.3 541 319.7 541 274 541C228.3 541 182.7 541 137 541C91.3 541 45.7 541 22.8 541L0 541Z"
        fill="#368f43"></path>
    <path
        d="M0 410L22.8 418.2C45.7 426.3 91.3 442.7 137 443.2C182.7 443.7 228.3 428.3 274 423.3C319.7 418.3 365.3 423.7 411.2 421.2C457 418.7 503 408.3 548.8 405C594.7 401.7 640.3 405.3 686 415.5C731.7 425.7 777.3 442.3 823 441.3C868.7 440.3 914.3 421.7 937.2 412.3L960 403L960 541L937.2 541C914.3 541 868.7 541 823 541C777.3 541 731.7 541 686 541C640.3 541 594.7 541 548.8 541C503 541 457 541 411.2 541C365.3 541 319.7 541 274 541C228.3 541 182.7 541 137 541C91.3 541 45.7 541 22.8 541L0 541Z"
        fill="#2e7b3a"></path>
    <path
        d="M0 482L22.8 473.8C45.7 465.7 91.3 449.3 137 448C182.7 446.7 228.3 460.3 274 461.5C319.7 462.7 365.3 451.3 411.2 453C457 454.7 503 469.3 548.8 469.3C594.7 469.3 640.3 454.7 686 446.5C731.7 438.3 777.3 436.7 823 436.8C868.7 437 914.3 439 937.2 440L960 441L960 541L937.2 541C914.3 541 868.7 541 823 541C777.3 541 731.7 541 686 541C640.3 541 594.7 541 548.8 541C503 541 457 541 411.2 541C365.3 541 319.7 541 274 541C228.3 541 182.7 541 137 541C91.3 541 45.7 541 22.8 541L0 541Z"
        fill="#276831"></path>
    <path
        d="M0 516L22.8 509.2C45.7 502.3 91.3 488.7 137 484.2C182.7 479.7 228.3 484.3 274 488.3C319.7 492.3 365.3 495.7 411.2 494.8C457 494 503 489 548.8 485C594.7 481 640.3 478 686 478.5C731.7 479 777.3 483 823 488.8C868.7 494.7 914.3 502.3 937.2 506.2L960 510L960 541L937.2 541C914.3 541 868.7 541 823 541C777.3 541 731.7 541 686 541C640.3 541 594.7 541 548.8 541C503 541 457 541 411.2 541C365.3 541 319.7 541 274 541C228.3 541 182.7 541 137 541C91.3 541 45.7 541 22.8 541L0 541Z"
        fill="#205628"></path>
</svg>