<svg id="visual" viewBox="0 0 960 540" width="fit-content"

height="540" xmlns="http://www.w3.org/2000/svg"
    xmlns:xlink="http://www.w3.org/1999/xlink" version="1.1">
    <rect x="0" y="0" width="fit-content" height="540" fill="#292929"></rect>
    <path
        d="M0 376L22.8 375.5C45.7 375 91.3 374 137 370.8C182.7 367.7 228.3 362.3 274 357C319.7 351.7 365.3 346.3 411.2 349C457 351.7 503 362.3 548.8 362.3C594.7 362.3 640.3 351.7 686 352.3C731.7 353 777.3 365 823 373.7C868.7 382.3 914.3 387.7 937.2 390.3L960 393L960 541L937.2 541C914.3 541 868.7 541 823 541C777.3 541 731.7 541 686 541C640.3 541 594.7 541 548.8 541C503 541 457 541 411.2 541C365.3 541 319.7 541 274 541C228.3 541 182.7 541 137 541C91.3 541 45.7 541 22.8 541L0 541Z"
        fill="#ffa31a"></path>
    <path
        d="M0 373L22.8 380.3C45.7 387.7 91.3 402.3 137 411C182.7 419.7 228.3 422.3 274 418.2C319.7 414 365.3 403 411.2 393C457 383 503 374 548.8 377.2C594.7 380.3 640.3 395.7 686 398.3C731.7 401 777.3 391 823 394.3C868.7 397.7 914.3 414.3 937.2 422.7L960 431L960 541L937.2 541C914.3 541 868.7 541 823 541C777.3 541 731.7 541 686 541C640.3 541 594.7 541 548.8 541C503 541 457 541 411.2 541C365.3 541 319.7 541 274 541C228.3 541 182.7 541 137 541C91.3 541 45.7 541 22.8 541L0 541Z"
        fill="#f09116"></path>
    <path
        d="M0 457L22.8 451.8C45.7 446.7 91.3 436.3 137 428.2C182.7 420 228.3 414 274 419.3C319.7 424.7 365.3 441.3 411.2 444.7C457 448 503 438 548.8 437.2C594.7 436.3 640.3 444.7 686 441.5C731.7 438.3 777.3 423.7 823 418C868.7 412.3 914.3 415.7 937.2 417.3L960 419L960 541L937.2 541C914.3 541 868.7 541 823 541C777.3 541 731.7 541 686 541C640.3 541 594.7 541 548.8 541C503 541 457 541 411.2 541C365.3 541 319.7 541 274 541C228.3 541 182.7 541 137 541C91.3 541 45.7 541 22.8 541L0 541Z"
        fill="#e07f13"></path>
    <path
        d="M0 471L22.8 467.5C45.7 464 91.3 457 137 456C182.7 455 228.3 460 274 466C319.7 472 365.3 479 411.2 478.7C457 478.3 503 470.7 548.8 466.8C594.7 463 640.3 463 686 459.3C731.7 455.7 777.3 448.3 823 448.3C868.7 448.3 914.3 455.7 937.2 459.3L960 463L960 541L937.2 541C914.3 541 868.7 541 823 541C777.3 541 731.7 541 686 541C640.3 541 594.7 541 548.8 541C503 541 457 541 411.2 541C365.3 541 319.7 541 274 541C228.3 541 182.7 541 137 541C91.3 541 45.7 541 22.8 541L0 541Z"
        fill="#d06e10"></path>
    <path
        d="M0 485L22.8 484C45.7 483 91.3 481 137 480.2C182.7 479.3 228.3 479.7 274 482.5C319.7 485.3 365.3 490.7 411.2 489.3C457 488 503 480 548.8 477.2C594.7 474.3 640.3 476.7 686 482.8C731.7 489 777.3 499 823 500.7C868.7 502.3 914.3 495.7 937.2 492.3L960 489L960 541L937.2 541C914.3 541 868.7 541 823 541C777.3 541 731.7 541 686 541C640.3 541 594.7 541 548.8 541C503 541 457 541 411.2 541C365.3 541 319.7 541 274 541C228.3 541 182.7 541 137 541C91.3 541 45.7 541 22.8 541L0 541Z"
        fill="#bf5d0d"></path>
</svg>