<svg xmlns="http://www.w3.org/2000/svg" version="1.1" xmlns:xlink="http://www.w3.org/1999/xlink"
    xmlns:svgjs="http://svgjs.dev/svgjs" width="1440" height="600" preserveAspectRatio="none" viewBox="0 0 1440 600">
    <g mask="url(&quot;#SvgjsMask1086&quot;)" fill="none">
        <g mask="url(&quot;#SvgjsMask1087&quot;)">
            <path d="M10 330L110 230L330 230L390 290" stroke-width="3.33" stroke="rgba(255, 163, 26, 0.5)"></path>
            <path d="M5 330 a5 5 0 1 0 10 0 a5 5 0 1 0 -10 0zM385 290 a5 5 0 1 0 10 0 a5 5 0 1 0 -10 0z"
                fill="rgba(255, 163, 26, 0.5)"></path>
            <path d="M310 110L410 10L690 10" stroke-width="3.33" stroke="rgba(255, 163, 26, 0.5)"></path>
            <path d="M305 110 a5 5 0 1 0 10 0 a5 5 0 1 0 -10 0zM685 10 a5 5 0 1 0 10 0 a5 5 0 1 0 -10 0z"
                fill="rgba(255, 163, 26, 0.5)"></path>
            <path d="M90 570L110 590L150 590L170 570L170 390L250 310L290 310" stroke-width="3.33"
                stroke="rgba(255, 163, 26, 0.5)"></path>
            <path d="M85 570 a5 5 0 1 0 10 0 a5 5 0 1 0 -10 0zM285 310 a5 5 0 1 0 10 0 a5 5 0 1 0 -10 0z"
                fill="rgba(255, 163, 26, 0.5)"></path>
            <path d="M410 550L230 370L230 350L250 330L330 330L410 410" stroke-width="3.33"
                stroke="rgba(255, 163, 26, 0.5)"></path>
            <path d="M405 550 a5 5 0 1 0 10 0 a5 5 0 1 0 -10 0zM405 410 a5 5 0 1 0 10 0 a5 5 0 1 0 -10 0z"
                fill="rgba(255, 163, 26, 0.5)"></path>
            <path d="M530 70L570 30L770 30L910 170" stroke-width="3.33" stroke="rgba(255, 163, 26, 0.5)"></path>
            <path d="M525 70 a5 5 0 1 0 10 0 a5 5 0 1 0 -10 0zM905 170 a5 5 0 1 0 10 0 a5 5 0 1 0 -10 0z"
                fill="rgba(255, 163, 26, 0.5)"></path>
            <path d="M830 390L830 590" stroke-width="3.33" stroke="rgba(255, 163, 26, 0.5)"></path>
            <path d="M825 390 a5 5 0 1 0 10 0 a5 5 0 1 0 -10 0zM825 590 a5 5 0 1 0 10 0 a5 5 0 1 0 -10 0z"
                fill="rgba(255, 163, 26, 0.5)"></path>
            <path d="M930 410L1110 410L1250 270L1250 210" stroke-width="3.33" stroke="rgba(255, 163, 26, 0.5)"></path>
            <path d="M925 410 a5 5 0 1 0 10 0 a5 5 0 1 0 -10 0zM1245 210 a5 5 0 1 0 10 0 a5 5 0 1 0 -10 0z"
                fill="rgba(255, 163, 26, 0.5)"></path>
            <path d="M1210 90L1210 10" stroke-width="3.33" stroke="rgba(255, 163, 26, 0.5)"></path>
            <path d="M1205 90 a5 5 0 1 0 10 0 a5 5 0 1 0 -10 0zM1205 10 a5 5 0 1 0 10 0 a5 5 0 1 0 -10 0z"
                fill="rgba(255, 163, 26, 0.5)"></path>
            <path d="M910 510L910 590" stroke-width="3.33" stroke="rgba(255, 163, 26, 0.5)"></path>
            <path d="M905 510 a5 5 0 1 0 10 0 a5 5 0 1 0 -10 0zM905 590 a5 5 0 1 0 10 0 a5 5 0 1 0 -10 0z"
                fill="rgba(255, 163, 26, 0.5)"></path>
            <path d="M1150 170L1110 130L1110 10" stroke-width="3.33" stroke="rgba(255, 163, 26, 0.5)"></path>
            <path d="M1145 170 a5 5 0 1 0 10 0 a5 5 0 1 0 -10 0zM1105 10 a5 5 0 1 0 10 0 a5 5 0 1 0 -10 0z"
                fill="rgba(255, 163, 26, 0.5)"></path>
            <path d="M1290 150L1430 10" stroke-width="3.33" stroke="rgba(255, 163, 26, 0.5)"></path>
            <path d="M1285 150 a5 5 0 1 0 10 0 a5 5 0 1 0 -10 0zM1425 10 a5 5 0 1 0 10 0 a5 5 0 1 0 -10 0z"
                fill="rgba(255, 163, 26, 0.5)"></path>
            <path d="M990 390L1110 390L1230 270L1230 210L1210 190L1150 190" stroke-width="3.33"
                stroke="rgba(255, 163, 26, 0.5)"></path>
            <path d="M985 390 a5 5 0 1 0 10 0 a5 5 0 1 0 -10 0zM1145 190 a5 5 0 1 0 10 0 a5 5 0 1 0 -10 0z"
                fill="rgba(255, 163, 26, 0.5)"></path>
            <path d="M1090 510L1010 430L850 430" stroke-width="3.33" stroke="rgba(255, 163, 26, 0.5)"></path>
            <path d="M1085 510 a5 5 0 1 0 10 0 a5 5 0 1 0 -10 0zM845 430 a5 5 0 1 0 10 0 a5 5 0 1 0 -10 0z"
                fill="rgba(255, 163, 26, 0.5)"></path>
            <path d="M470 530L410 530L390 510L390 490L250 350" stroke-width="3.33" stroke="rgba(255, 163, 26, 0.5)">
            </path>
            <path d="M465 530 a5 5 0 1 0 10 0 a5 5 0 1 0 -10 0zM245 350 a5 5 0 1 0 10 0 a5 5 0 1 0 -10 0z"
                fill="rgba(255, 163, 26, 0.5)"></path>
            <path d="M690 530L790 430L790 150" stroke-width="3.33" stroke="rgba(255, 163, 26, 0.5)"></path>
            <path d="M685 530 a5 5 0 1 0 10 0 a5 5 0 1 0 -10 0zM785 150 a5 5 0 1 0 10 0 a5 5 0 1 0 -10 0z"
                fill="rgba(255, 163, 26, 0.5)"></path>
            <path d="M590 130L590 490L570 510" stroke-width="3.33" stroke="rgba(255, 163, 26, 0.5)"></path>
            <path d="M585 130 a5 5 0 1 0 10 0 a5 5 0 1 0 -10 0zM565 510 a5 5 0 1 0 10 0 a5 5 0 1 0 -10 0z"
                fill="rgba(255, 163, 26, 0.5)"></path>
            <path d="M1130 550L1270 410L1410 410L1430 430L1430 510" stroke-width="3.33"
                stroke="rgba(255, 163, 26, 0.5)"></path>
            <path d="M1125 550 a5 5 0 1 0 10 0 a5 5 0 1 0 -10 0zM1425 510 a5 5 0 1 0 10 0 a5 5 0 1 0 -10 0z"
                fill="rgba(255, 163, 26, 0.5)"></path>
            <path d="M350 590L350 510L210 370" stroke-width="3.33" stroke="rgba(255, 163, 26, 0.5)"></path>
            <path d="M345 590 a5 5 0 1 0 10 0 a5 5 0 1 0 -10 0zM205 370 a5 5 0 1 0 10 0 a5 5 0 1 0 -10 0z"
                fill="rgba(255, 163, 26, 0.5)"></path>
            <path d="M1330 250L1430 150L1430 30" stroke-width="3.33" stroke="rgba(255, 163, 26, 0.5)"></path>
            <path d="M1325 250 a5 5 0 1 0 10 0 a5 5 0 1 0 -10 0zM1425 30 a5 5 0 1 0 10 0 a5 5 0 1 0 -10 0z"
                fill="rgba(255, 163, 26, 0.5)"></path>
            <path d="M70 450L70 330L150 250L330 250" stroke-width="3.33" stroke="rgba(255, 163, 26, 0.5)"></path>
            <path d="M65 450 a5 5 0 1 0 10 0 a5 5 0 1 0 -10 0zM325 250 a5 5 0 1 0 10 0 a5 5 0 1 0 -10 0z"
                fill="rgba(255, 163, 26, 0.5)"></path>
            <path d="M210 390L190 410L190 590" stroke-width="3.33" stroke="rgba(255, 163, 26, 0.5)"></path>
            <path d="M205 390 a5 5 0 1 0 10 0 a5 5 0 1 0 -10 0zM185 590 a5 5 0 1 0 10 0 a5 5 0 1 0 -10 0z"
                fill="rgba(255, 163, 26, 0.5)"></path>
            <path d="M1170 450L1170 370L1190 350L1430 350" stroke-width="3.33" stroke="rgba(255, 163, 26, 0.5)"></path>
            <path d="M1165 450 a5 5 0 1 0 10 0 a5 5 0 1 0 -10 0zM1425 350 a5 5 0 1 0 10 0 a5 5 0 1 0 -10 0z"
                fill="rgba(255, 163, 26, 0.5)"></path>
            <path d="M1190 230L1190 290L1150 330L1010 330L950 390L870 390" stroke-width="3.33"
                stroke="rgba(255, 163, 26, 0.5)"></path>
            <path d="M1185 230 a5 5 0 1 0 10 0 a5 5 0 1 0 -10 0zM865 390 a5 5 0 1 0 10 0 a5 5 0 1 0 -10 0z"
                fill="rgba(255, 163, 26, 0.5)"></path>
            <path d="M710 310L650 370L610 370" stroke-width="3.33" stroke="rgba(255, 163, 26, 0.5)"></path>
            <path d="M705 310 a5 5 0 1 0 10 0 a5 5 0 1 0 -10 0zM605 370 a5 5 0 1 0 10 0 a5 5 0 1 0 -10 0z"
                fill="rgba(255, 163, 26, 0.5)"></path>
            <path d="M90 50L90 10" stroke-width="3.33" stroke="rgba(255, 163, 26, 0.5)"></path>
            <path d="M85 50 a5 5 0 1 0 10 0 a5 5 0 1 0 -10 0zM85 10 a5 5 0 1 0 10 0 a5 5 0 1 0 -10 0z"
                fill="rgba(255, 163, 26, 0.5)"></path>
            <path d="M810 550L810 590" stroke-width="3.33" stroke="rgba(255, 163, 26, 0.5)"></path>
            <path d="M805 550 a5 5 0 1 0 10 0 a5 5 0 1 0 -10 0zM805 590 a5 5 0 1 0 10 0 a5 5 0 1 0 -10 0z"
                fill="rgba(255, 163, 26, 0.5)"></path>
            <path d="M710 130L770 190L770 270L650 390L610 390" stroke-width="3.33" stroke="rgba(255, 163, 26, 0.5)">
            </path>
            <path d="M705 130 a5 5 0 1 0 10 0 a5 5 0 1 0 -10 0zM605 390 a5 5 0 1 0 10 0 a5 5 0 1 0 -10 0z"
                fill="rgba(255, 163, 26, 0.5)"></path>
            <path d="M470 150L470 130L390 50" stroke-width="3.33" stroke="rgba(255, 163, 26, 0.5)"></path>
            <path d="M465 150 a5 5 0 1 0 10 0 a5 5 0 1 0 -10 0zM385 50 a5 5 0 1 0 10 0 a5 5 0 1 0 -10 0z"
                fill="rgba(255, 163, 26, 0.5)"></path>
            <path d="M190 190L170 210L30 210L10 190L10 110L70 50L70 10" stroke-width="3.33"
                stroke="rgba(255, 163, 26, 0.5)"></path>
            <path d="M185 190 a5 5 0 1 0 10 0 a5 5 0 1 0 -10 0zM65 10 a5 5 0 1 0 10 0 a5 5 0 1 0 -10 0z"
                fill="rgba(255, 163, 26, 0.5)"></path>
            <path d="M790 590L470 590L450 570L410 570" stroke-width="3.33" stroke="rgba(255, 163, 26, 0.5)"></path>
            <path d="M785 590 a5 5 0 1 0 10 0 a5 5 0 1 0 -10 0zM405 570 a5 5 0 1 0 10 0 a5 5 0 1 0 -10 0z"
                fill="rgba(255, 163, 26, 0.5)"></path>
            <path d="M1370 190L1410 150L1410 50" stroke-width="3.33" stroke="rgba(255, 163, 26, 0.5)"></path>
            <path d="M1365 190 a5 5 0 1 0 10 0 a5 5 0 1 0 -10 0zM1405 50 a5 5 0 1 0 10 0 a5 5 0 1 0 -10 0z"
                fill="rgba(255, 163, 26, 0.5)"></path>
            <path d="M510 250L350 90" stroke-width="3.33" stroke="rgba(255, 163, 26, 0.5)"></path>
            <path d="M505 250 a5 5 0 1 0 10 0 a5 5 0 1 0 -10 0zM345 90 a5 5 0 1 0 10 0 a5 5 0 1 0 -10 0z"
                fill="rgba(255, 163, 26, 0.5)"></path>
            <path d="M1210 390L1210 450L1070 590L970 590L950 570L950 530L970 510" stroke-width="3.33"
                stroke="rgba(255, 163, 26, 0.5)"></path>
            <path d="M1205 390 a5 5 0 1 0 10 0 a5 5 0 1 0 -10 0zM965 510 a5 5 0 1 0 10 0 a5 5 0 1 0 -10 0z"
                fill="rgba(255, 163, 26, 0.5)"></path>
            <path d="M470 110L470 30" stroke-width="3.33" stroke="rgba(255, 163, 26, 0.5)"></path>
            <path d="M465 110 a5 5 0 1 0 10 0 a5 5 0 1 0 -10 0zM465 30 a5 5 0 1 0 10 0 a5 5 0 1 0 -10 0z"
                fill="rgba(255, 163, 26, 0.5)"></path>
            <path d="M850 350L810 310L810 90L770 50L750 50L690 110" stroke-width="3.33"
                stroke="rgba(255, 163, 26, 0.5)"></path>
            <path d="M845 350 a5 5 0 1 0 10 0 a5 5 0 1 0 -10 0zM685 110 a5 5 0 1 0 10 0 a5 5 0 1 0 -10 0z"
                fill="rgba(255, 163, 26, 0.5)"></path>
            <path d="M1270 190L1270 330" stroke-width="3.33" stroke="rgba(255, 163, 26, 0.5)"></path>
            <path d="M1265 190 a5 5 0 1 0 10 0 a5 5 0 1 0 -10 0zM1265 330 a5 5 0 1 0 10 0 a5 5 0 1 0 -10 0z"
                fill="rgba(255, 163, 26, 0.5)"></path>
            <path d="M130 470L90 430L90 330L150 270L330 270" stroke-width="3.33" stroke="rgba(255, 163, 26, 0.5)">
            </path>
            <path d="M125 470 a5 5 0 1 0 10 0 a5 5 0 1 0 -10 0zM325 270 a5 5 0 1 0 10 0 a5 5 0 1 0 -10 0z"
                fill="rgba(255, 163, 26, 0.5)"></path>
            <path d="M710 470L770 410L770 290" stroke-width="3.33" stroke="rgba(255, 163, 26, 0.5)"></path>
            <path d="M705 470 a5 5 0 1 0 10 0 a5 5 0 1 0 -10 0zM765 290 a5 5 0 1 0 10 0 a5 5 0 1 0 -10 0z"
                fill="rgba(255, 163, 26, 0.5)"></path>
            <path d="M1110 250L1110 190L1070 150L1070 10" stroke-width="3.33" stroke="rgba(255, 163, 26, 0.5)"></path>
            <path d="M1105 250 a5 5 0 1 0 10 0 a5 5 0 1 0 -10 0zM1065 10 a5 5 0 1 0 10 0 a5 5 0 1 0 -10 0z"
                fill="rgba(255, 163, 26, 0.5)"></path>
            <path d="M1150 230L1150 310" stroke-width="3.33" stroke="rgba(255, 163, 26, 0.5)"></path>
            <path d="M1145 230 a5 5 0 1 0 10 0 a5 5 0 1 0 -10 0zM1145 310 a5 5 0 1 0 10 0 a5 5 0 1 0 -10 0z"
                fill="rgba(255, 163, 26, 0.5)"></path>
            <path d="M150 530L110 570" stroke-width="3.33" stroke="rgba(255, 163, 26, 0.5)"></path>
            <path d="M145 530 a5 5 0 1 0 10 0 a5 5 0 1 0 -10 0zM105 570 a5 5 0 1 0 10 0 a5 5 0 1 0 -10 0z"
                fill="rgba(255, 163, 26, 0.5)"></path>
            <path d="M1250 470L1130 590L1090 590" stroke-width="3.33" stroke="rgba(255, 163, 26, 0.5)"></path>
            <path d="M1245 470 a5 5 0 1 0 10 0 a5 5 0 1 0 -10 0zM1085 590 a5 5 0 1 0 10 0 a5 5 0 1 0 -10 0z"
                fill="rgba(255, 163, 26, 0.5)"></path>
            <path d="M1070 310L1010 310L830 130L830 110" stroke-width="3.33" stroke="rgba(255, 163, 26, 0.5)"></path>
            <path d="M1065 310 a5 5 0 1 0 10 0 a5 5 0 1 0 -10 0zM825 110 a5 5 0 1 0 10 0 a5 5 0 1 0 -10 0z"
                fill="rgba(255, 163, 26, 0.5)"></path>
            <path d="M150 370L110 330" stroke-width="3.33" stroke="rgba(255, 163, 26, 0.5)"></path>
            <path d="M145 370 a5 5 0 1 0 10 0 a5 5 0 1 0 -10 0zM105 330 a5 5 0 1 0 10 0 a5 5 0 1 0 -10 0z"
                fill="rgba(255, 163, 26, 0.5)"></path>
            <path d="M250 590L250 430L230 410L210 410" stroke-width="3.33" stroke="rgba(255, 163, 26, 0.5)"></path>
            <path d="M245 590 a5 5 0 1 0 10 0 a5 5 0 1 0 -10 0zM205 410 a5 5 0 1 0 10 0 a5 5 0 1 0 -10 0z"
                fill="rgba(255, 163, 26, 0.5)"></path>
            <path d="M990 150L990 170L950 210L930 210L910 190" stroke-width="3.33" stroke="rgba(255, 163, 26, 0.5)">
            </path>
            <path d="M985 150 a5 5 0 1 0 10 0 a5 5 0 1 0 -10 0zM905 190 a5 5 0 1 0 10 0 a5 5 0 1 0 -10 0z"
                fill="rgba(255, 163, 26, 0.5)"></path>
            <path d="M830 210L850 190L850 170L830 150" stroke-width="3.33" stroke="rgba(255, 163, 26, 0.5)"></path>
            <path d="M825 210 a5 5 0 1 0 10 0 a5 5 0 1 0 -10 0zM825 150 a5 5 0 1 0 10 0 a5 5 0 1 0 -10 0z"
                fill="rgba(255, 163, 26, 0.5)"></path>
            <path d="M110 250L10 350L10 590" stroke-width="3.33" stroke="rgba(255, 163, 26, 0.5)"></path>
            <path d="M105 250 a5 5 0 1 0 10 0 a5 5 0 1 0 -10 0zM5 590 a5 5 0 1 0 10 0 a5 5 0 1 0 -10 0z"
                fill="rgba(255, 163, 26, 0.5)"></path>
            <path d="M490 310L570 230L570 130L650 50L730 50" stroke-width="3.33" stroke="rgba(255, 163, 26, 0.5)">
            </path>
            <path d="M485 310 a5 5 0 1 0 10 0 a5 5 0 1 0 -10 0zM725 50 a5 5 0 1 0 10 0 a5 5 0 1 0 -10 0z"
                fill="rgba(255, 163, 26, 0.5)"></path>
            <path d="M1350 190L1310 150" stroke-width="3.33" stroke="rgba(255, 163, 26, 0.5)"></path>
            <path d="M1345 190 a5 5 0 1 0 10 0 a5 5 0 1 0 -10 0zM1305 150 a5 5 0 1 0 10 0 a5 5 0 1 0 -10 0z"
                fill="rgba(255, 163, 26, 0.5)"></path>
            <path d="M150 30L230 30L270 70L330 70L390 10" stroke-width="3.33" stroke="rgba(255, 163, 26, 0.5)"></path>
            <path d="M145 30 a5 5 0 1 0 10 0 a5 5 0 1 0 -10 0zM385 10 a5 5 0 1 0 10 0 a5 5 0 1 0 -10 0z"
                fill="rgba(255, 163, 26, 0.5)"></path>
            <path d="M630 170L630 350" stroke-width="3.33" stroke="rgba(255, 163, 26, 0.5)"></path>
            <path d="M625 170 a5 5 0 1 0 10 0 a5 5 0 1 0 -10 0zM625 350 a5 5 0 1 0 10 0 a5 5 0 1 0 -10 0z"
                fill="rgba(255, 163, 26, 0.5)"></path>
            <path d="M1410 510L1430 530L1430 590" stroke-width="3.33" stroke="rgba(255, 163, 26, 0.5)"></path>
            <path d="M1405 510 a5 5 0 1 0 10 0 a5 5 0 1 0 -10 0zM1425 590 a5 5 0 1 0 10 0 a5 5 0 1 0 -10 0z"
                fill="rgba(255, 163, 26, 0.5)"></path>
            <path d="M790 90L770 70L750 70L710 110" stroke-width="3.33" stroke="rgba(255, 163, 26, 0.5)"></path>
            <path d="M785 90 a5 5 0 1 0 10 0 a5 5 0 1 0 -10 0zM705 110 a5 5 0 1 0 10 0 a5 5 0 1 0 -10 0z"
                fill="rgba(255, 163, 26, 0.5)"></path>
            <path d="M630 450L610 430L610 410" stroke-width="3.33" stroke="rgba(255, 163, 26, 0.5)"></path>
            <path d="M625 450 a5 5 0 1 0 10 0 a5 5 0 1 0 -10 0zM605 410 a5 5 0 1 0 10 0 a5 5 0 1 0 -10 0z"
                fill="rgba(255, 163, 26, 0.5)"></path>
            <path d="M350 190L330 210L250 210L110 70L70 70L30 110L30 150L50 170" stroke-width="3.33"
                stroke="rgba(255, 163, 26, 0.5)"></path>
            <path d="M345 190 a5 5 0 1 0 10 0 a5 5 0 1 0 -10 0zM45 170 a5 5 0 1 0 10 0 a5 5 0 1 0 -10 0z"
                fill="rgba(255, 163, 26, 0.5)"></path>
            <path d="M1010 530L1110 530L1170 470" stroke-width="3.33" stroke="rgba(255, 163, 26, 0.5)"></path>
            <path d="M1005 530 a5 5 0 1 0 10 0 a5 5 0 1 0 -10 0zM1165 470 a5 5 0 1 0 10 0 a5 5 0 1 0 -10 0z"
                fill="rgba(255, 163, 26, 0.5)"></path>
            <path d="M490 530L510 550L510 570" stroke-width="3.33" stroke="rgba(255, 163, 26, 0.5)"></path>
            <path d="M485 530 a5 5 0 1 0 10 0 a5 5 0 1 0 -10 0zM505 570 a5 5 0 1 0 10 0 a5 5 0 1 0 -10 0z"
                fill="rgba(255, 163, 26, 0.5)"></path>
            <path d="M810 510L730 510L670 570L570 570L430 430" stroke-width="3.33" stroke="rgba(255, 163, 26, 0.5)">
            </path>
            <path d="M805 510 a5 5 0 1 0 10 0 a5 5 0 1 0 -10 0zM425 430 a5 5 0 1 0 10 0 a5 5 0 1 0 -10 0z"
                fill="rgba(255, 163, 26, 0.5)"></path>
            <path d="M870 110L870 10" stroke-width="3.33" stroke="rgba(255, 163, 26, 0.5)"></path>
            <path d="M865 110 a5 5 0 1 0 10 0 a5 5 0 1 0 -10 0zM865 10 a5 5 0 1 0 10 0 a5 5 0 1 0 -10 0z"
                fill="rgba(255, 163, 26, 0.5)"></path>
            <path d="M490 370L570 450L570 490L550 510L530 510L370 350L370 290" stroke-width="3.33"
                stroke="rgba(255, 163, 26, 0.5)"></path>
            <path d="M485 370 a5 5 0 1 0 10 0 a5 5 0 1 0 -10 0zM365 290 a5 5 0 1 0 10 0 a5 5 0 1 0 -10 0z"
                fill="rgba(255, 163, 26, 0.5)"></path>
            <path d="M1030 230L1030 290" stroke-width="3.33" stroke="rgba(255, 163, 26, 0.5)"></path>
            <path d="M1025 230 a5 5 0 1 0 10 0 a5 5 0 1 0 -10 0zM1025 290 a5 5 0 1 0 10 0 a5 5 0 1 0 -10 0z"
                fill="rgba(255, 163, 26, 0.5)"></path>
            <path d="M270 10L110 10" stroke-width="3.33" stroke="rgba(255, 163, 26, 0.5)"></path>
            <path d="M265 10 a5 5 0 1 0 10 0 a5 5 0 1 0 -10 0zM105 10 a5 5 0 1 0 10 0 a5 5 0 1 0 -10 0z"
                fill="rgba(255, 163, 26, 0.5)"></path>
            <path d="M710 190L750 190" stroke-width="3.33" stroke="rgba(255, 163, 26, 0.5)"></path>
            <path d="M705 190 a5 5 0 1 0 10 0 a5 5 0 1 0 -10 0zM745 190 a5 5 0 1 0 10 0 a5 5 0 1 0 -10 0z"
                fill="rgba(255, 163, 26, 0.5)"></path>
            <path d="M490 30L490 210L530 250" stroke-width="3.33" stroke="rgba(255, 163, 26, 0.5)"></path>
            <path d="M485 30 a5 5 0 1 0 10 0 a5 5 0 1 0 -10 0zM525 250 a5 5 0 1 0 10 0 a5 5 0 1 0 -10 0z"
                fill="rgba(255, 163, 26, 0.5)"></path>
            <path d="M330 290L250 290L170 370" stroke-width="3.33" stroke="rgba(255, 163, 26, 0.5)"></path>
            <path d="M325 290 a5 5 0 1 0 10 0 a5 5 0 1 0 -10 0zM165 370 a5 5 0 1 0 10 0 a5 5 0 1 0 -10 0z"
                fill="rgba(255, 163, 26, 0.5)"></path>
            <path d="M870 250L830 250" stroke-width="3.33" stroke="rgba(255, 163, 26, 0.5)"></path>
            <path d="M865 250 a5 5 0 1 0 10 0 a5 5 0 1 0 -10 0zM825 250 a5 5 0 1 0 10 0 a5 5 0 1 0 -10 0z"
                fill="rgba(255, 163, 26, 0.5)"></path>
            <path d="M350 390L310 390L270 350" stroke-width="3.33" stroke="rgba(255, 163, 26, 0.5)"></path>
            <path d="M345 390 a5 5 0 1 0 10 0 a5 5 0 1 0 -10 0zM265 350 a5 5 0 1 0 10 0 a5 5 0 1 0 -10 0z"
                fill="rgba(255, 163, 26, 0.5)"></path>
            <path d="M750 570L790 570" stroke-width="3.33" stroke="rgba(255, 163, 26, 0.5)"></path>
            <path d="M745 570 a5 5 0 1 0 10 0 a5 5 0 1 0 -10 0zM785 570 a5 5 0 1 0 10 0 a5 5 0 1 0 -10 0z"
                fill="rgba(255, 163, 26, 0.5)"></path>
            <path d="M390 270L350 230L350 210L370 190L390 190L490 290" stroke-width="3.33"
                stroke="rgba(255, 163, 26, 0.5)"></path>
            <path d="M385 270 a5 5 0 1 0 10 0 a5 5 0 1 0 -10 0zM485 290 a5 5 0 1 0 10 0 a5 5 0 1 0 -10 0z"
                fill="rgba(255, 163, 26, 0.5)"></path>
            <path d="M610 210L610 110L650 70L710 70" stroke-width="3.33" stroke="rgba(255, 163, 26, 0.5)"></path>
            <path d="M605 210 a5 5 0 1 0 10 0 a5 5 0 1 0 -10 0zM705 70 a5 5 0 1 0 10 0 a5 5 0 1 0 -10 0z"
                fill="rgba(255, 163, 26, 0.5)"></path>
            <path d="M690 410L750 410" stroke-width="3.33" stroke="rgba(255, 163, 26, 0.5)"></path>
            <path d="M685 410 a5 5 0 1 0 10 0 a5 5 0 1 0 -10 0zM745 410 a5 5 0 1 0 10 0 a5 5 0 1 0 -10 0z"
                fill="rgba(255, 163, 26, 0.5)"></path>
            <path d="M1110 150L1130 170L1130 310" stroke-width="3.33" stroke="rgba(255, 163, 26, 0.5)"></path>
            <path d="M1105 150 a5 5 0 1 0 10 0 a5 5 0 1 0 -10 0zM1125 310 a5 5 0 1 0 10 0 a5 5 0 1 0 -10 0z"
                fill="rgba(255, 163, 26, 0.5)"></path>
            <path d="M1070 290L1090 310L1110 310" stroke-width="3.33" stroke="rgba(255, 163, 26, 0.5)"></path>
            <path d="M1065 290 a5 5 0 1 0 10 0 a5 5 0 1 0 -10 0zM1105 310 a5 5 0 1 0 10 0 a5 5 0 1 0 -10 0z"
                fill="rgba(255, 163, 26, 0.5)"></path>
            <path d="M1130 70L1130 130L1170 170L1310 170L1350 210" stroke-width="3.33" stroke="rgba(255, 163, 26, 0.5)">
            </path>
            <path d="M1125 70 a5 5 0 1 0 10 0 a5 5 0 1 0 -10 0zM1345 210 a5 5 0 1 0 10 0 a5 5 0 1 0 -10 0z"
                fill="rgba(255, 163, 26, 0.5)"></path>
            <path d="M850 370L810 370" stroke-width="3.33" stroke="rgba(255, 163, 26, 0.5)"></path>
            <path d="M845 370 a5 5 0 1 0 10 0 a5 5 0 1 0 -10 0zM805 370 a5 5 0 1 0 10 0 a5 5 0 1 0 -10 0z"
                fill="rgba(255, 163, 26, 0.5)"></path>
            <path d="M610 530L550 530" stroke-width="3.33" stroke="rgba(255, 163, 26, 0.5)"></path>
            <path d="M605 530 a5 5 0 1 0 10 0 a5 5 0 1 0 -10 0zM545 530 a5 5 0 1 0 10 0 a5 5 0 1 0 -10 0z"
                fill="rgba(255, 163, 26, 0.5)"></path>
            <path d="M230 150L290 90L310 90" stroke-width="3.33" stroke="rgba(255, 163, 26, 0.5)"></path>
            <path d="M225 150 a5 5 0 1 0 10 0 a5 5 0 1 0 -10 0zM305 90 a5 5 0 1 0 10 0 a5 5 0 1 0 -10 0z"
                fill="rgba(255, 163, 26, 0.5)"></path>
            <path d="M570 290L510 350L390 350" stroke-width="3.33" stroke="rgba(255, 163, 26, 0.5)"></path>
            <path d="M565 290 a5 5 0 1 0 10 0 a5 5 0 1 0 -10 0zM385 350 a5 5 0 1 0 10 0 a5 5 0 1 0 -10 0z"
                fill="rgba(255, 163, 26, 0.5)"></path>
            <path d="M210 550L210 430" stroke-width="3.33" stroke="rgba(255, 163, 26, 0.5)"></path>
            <path d="M205 550 a5 5 0 1 0 10 0 a5 5 0 1 0 -10 0zM205 430 a5 5 0 1 0 10 0 a5 5 0 1 0 -10 0z"
                fill="rgba(255, 163, 26, 0.5)"></path>
            <path d="M1250 450L1390 590L1410 590" stroke-width="3.33" stroke="rgba(255, 163, 26, 0.5)"></path>
            <path d="M1245 450 a5 5 0 1 0 10 0 a5 5 0 1 0 -10 0zM1405 590 a5 5 0 1 0 10 0 a5 5 0 1 0 -10 0z"
                fill="rgba(255, 163, 26, 0.5)"></path>
            <path d="M390 430L450 490L470 490L490 510" stroke-width="3.33" stroke="rgba(255, 163, 26, 0.5)"></path>
            <path d="M385 430 a5 5 0 1 0 10 0 a5 5 0 1 0 -10 0zM485 510 a5 5 0 1 0 10 0 a5 5 0 1 0 -10 0z"
                fill="rgba(255, 163, 26, 0.5)"></path>
            <path d="M310 130L270 130L230 170" stroke-width="3.33" stroke="rgba(255, 163, 26, 0.5)"></path>
            <path d="M305 130 a5 5 0 1 0 10 0 a5 5 0 1 0 -10 0zM225 170 a5 5 0 1 0 10 0 a5 5 0 1 0 -10 0z"
                fill="rgba(255, 163, 26, 0.5)"></path>
            <path d="M890 310L990 310" stroke-width="3.33" stroke="rgba(255, 163, 26, 0.5)"></path>
            <path d="M885 310 a5 5 0 1 0 10 0 a5 5 0 1 0 -10 0zM985 310 a5 5 0 1 0 10 0 a5 5 0 1 0 -10 0z"
                fill="rgba(255, 163, 26, 0.5)"></path>
            <path d="M410 230L370 230" stroke-width="3.33" stroke="rgba(255, 163, 26, 0.5)"></path>
            <path d="M405 230 a5 5 0 1 0 10 0 a5 5 0 1 0 -10 0zM365 230 a5 5 0 1 0 10 0 a5 5 0 1 0 -10 0z"
                fill="rgba(255, 163, 26, 0.5)"></path>
            <path d="M970 10L890 90L890 130L950 190" stroke-width="3.33" stroke="rgba(255, 163, 26, 0.5)"></path>
            <path d="M965 10 a5 5 0 1 0 10 0 a5 5 0 1 0 -10 0zM945 190 a5 5 0 1 0 10 0 a5 5 0 1 0 -10 0z"
                fill="rgba(255, 163, 26, 0.5)"></path>
            <path d="M990 550L1010 570L1070 570L1090 550" stroke-width="3.33" stroke="rgba(255, 163, 26, 0.5)"></path>
            <path d="M985 550 a5 5 0 1 0 10 0 a5 5 0 1 0 -10 0zM1085 550 a5 5 0 1 0 10 0 a5 5 0 1 0 -10 0z"
                fill="rgba(255, 163, 26, 0.5)"></path>
            <path d="M30 470L30 350L50 330" stroke-width="3.33" stroke="rgba(255, 163, 26, 0.5)"></path>
            <path d="M25 470 a5 5 0 1 0 10 0 a5 5 0 1 0 -10 0zM45 330 a5 5 0 1 0 10 0 a5 5 0 1 0 -10 0z"
                fill="rgba(255, 163, 26, 0.5)"></path>
            <path d="M550 70L570 50L630 50" stroke-width="3.33" stroke="rgba(255, 163, 26, 0.5)"></path>
            <path d="M545 70 a5 5 0 1 0 10 0 a5 5 0 1 0 -10 0zM625 50 a5 5 0 1 0 10 0 a5 5 0 1 0 -10 0z"
                fill="rgba(255, 163, 26, 0.5)"></path>
            <path d="M430 250L410 270L410 330" stroke-width="3.33" stroke="rgba(255, 163, 26, 0.5)"></path>
            <path d="M425 250 a5 5 0 1 0 10 0 a5 5 0 1 0 -10 0zM405 330 a5 5 0 1 0 10 0 a5 5 0 1 0 -10 0z"
                fill="rgba(255, 163, 26, 0.5)"></path>
            <path d="M1210 250L1210 210" stroke-width="3.33" stroke="rgba(255, 163, 26, 0.5)"></path>
            <path d="M1205 250 a5 5 0 1 0 10 0 a5 5 0 1 0 -10 0zM1205 210 a5 5 0 1 0 10 0 a5 5 0 1 0 -10 0z"
                fill="rgba(255, 163, 26, 0.5)"></path>
            <path d="M1370 510L1370 550L1390 570L1410 570" stroke-width="3.33" stroke="rgba(255, 163, 26, 0.5)"></path>
            <path d="M1365 510 a5 5 0 1 0 10 0 a5 5 0 1 0 -10 0zM1405 570 a5 5 0 1 0 10 0 a5 5 0 1 0 -10 0z"
                fill="rgba(255, 163, 26, 0.5)"></path>
            <path d="M650 270L650 90" stroke-width="3.33" stroke="rgba(255, 163, 26, 0.5)"></path>
            <path d="M645 270 a5 5 0 1 0 10 0 a5 5 0 1 0 -10 0zM645 90 a5 5 0 1 0 10 0 a5 5 0 1 0 -10 0z"
                fill="rgba(255, 163, 26, 0.5)"></path>
            <path d="M1070 170L1090 190L1090 290" stroke-width="3.33" stroke="rgba(255, 163, 26, 0.5)"></path>
            <path d="M1065 170 a5 5 0 1 0 10 0 a5 5 0 1 0 -10 0zM1085 290 a5 5 0 1 0 10 0 a5 5 0 1 0 -10 0z"
                fill="rgba(255, 163, 26, 0.5)"></path>
            <path d="M1270 110L1150 110" stroke-width="3.33" stroke="rgba(255, 163, 26, 0.5)"></path>
            <path d="M1265 110 a5 5 0 1 0 10 0 a5 5 0 1 0 -10 0zM1145 110 a5 5 0 1 0 10 0 a5 5 0 1 0 -10 0z"
                fill="rgba(255, 163, 26, 0.5)"></path>
            <path d="M650 330L650 310L750 210" stroke-width="3.33" stroke="rgba(255, 163, 26, 0.5)"></path>
            <path d="M645 330 a5 5 0 1 0 10 0 a5 5 0 1 0 -10 0zM745 210 a5 5 0 1 0 10 0 a5 5 0 1 0 -10 0z"
                fill="rgba(255, 163, 26, 0.5)"></path>
            <path d="M1270 30L1230 70L1230 90" stroke-width="3.33" stroke="rgba(255, 163, 26, 0.5)"></path>
            <path d="M1265 30 a5 5 0 1 0 10 0 a5 5 0 1 0 -10 0zM1225 90 a5 5 0 1 0 10 0 a5 5 0 1 0 -10 0z"
                fill="rgba(255, 163, 26, 0.5)"></path>
            <path d="M30 490L90 550L110 550L150 510L150 390L110 350" stroke-width="3.33"
                stroke="rgba(255, 163, 26, 0.5)"></path>
            <path d="M25 490 a5 5 0 1 0 10 0 a5 5 0 1 0 -10 0zM105 350 a5 5 0 1 0 10 0 a5 5 0 1 0 -10 0z"
                fill="rgba(255, 163, 26, 0.5)"></path>
            <path d="M330 510L270 450" stroke-width="3.33" stroke="rgba(255, 163, 26, 0.5)"></path>
            <path d="M325 510 a5 5 0 1 0 10 0 a5 5 0 1 0 -10 0zM265 450 a5 5 0 1 0 10 0 a5 5 0 1 0 -10 0z"
                fill="rgba(255, 163, 26, 0.5)"></path>
            <path d="M530 490L530 430L470 370L410 370" stroke-width="3.33" stroke="rgba(255, 163, 26, 0.5)"></path>
            <path d="M525 490 a5 5 0 1 0 10 0 a5 5 0 1 0 -10 0zM405 370 a5 5 0 1 0 10 0 a5 5 0 1 0 -10 0z"
                fill="rgba(255, 163, 26, 0.5)"></path>
            <path d="M1230 150L1270 150L1370 50L1370 10" stroke-width="3.33" stroke="rgba(255, 163, 26, 0.5)"></path>
            <path d="M1225 150 a5 5 0 1 0 10 0 a5 5 0 1 0 -10 0zM1365 10 a5 5 0 1 0 10 0 a5 5 0 1 0 -10 0z"
                fill="rgba(255, 163, 26, 0.5)"></path>
            <path d="M430 290L430 310L450 330L510 330L570 270" stroke-width="3.33" stroke="rgba(255, 163, 26, 0.5)">
            </path>
            <path d="M425 290 a5 5 0 1 0 10 0 a5 5 0 1 0 -10 0zM565 270 a5 5 0 1 0 10 0 a5 5 0 1 0 -10 0z"
                fill="rgba(255, 163, 26, 0.5)"></path>
            <path d="M190 210L230 210" stroke-width="3.33" stroke="rgba(255, 163, 26, 0.5)"></path>
            <path d="M185 210 a5 5 0 1 0 10 0 a5 5 0 1 0 -10 0zM225 210 a5 5 0 1 0 10 0 a5 5 0 1 0 -10 0z"
                fill="rgba(255, 163, 26, 0.5)"></path>
            <path d="M710 270L670 310L670 330" stroke-width="3.33" stroke="rgba(255, 163, 26, 0.5)"></path>
            <path d="M705 270 a5 5 0 1 0 10 0 a5 5 0 1 0 -10 0zM665 330 a5 5 0 1 0 10 0 a5 5 0 1 0 -10 0z"
                fill="rgba(255, 163, 26, 0.5)"></path>
            <path d="M890 10L890 70" stroke-width="3.33" stroke="rgba(255, 163, 26, 0.5)"></path>
            <path d="M885 10 a5 5 0 1 0 10 0 a5 5 0 1 0 -10 0zM885 70 a5 5 0 1 0 10 0 a5 5 0 1 0 -10 0z"
                fill="rgba(255, 163, 26, 0.5)"></path>
            <path d="M1230 530L1230 510L1250 490L1270 490L1370 590" stroke-width="3.33"
                stroke="rgba(255, 163, 26, 0.5)"></path>
            <path d="M1225 530 a5 5 0 1 0 10 0 a5 5 0 1 0 -10 0zM1365 590 a5 5 0 1 0 10 0 a5 5 0 1 0 -10 0z"
                fill="rgba(255, 163, 26, 0.5)"></path>
            <path d="M1310 190L1330 210L1330 230L1290 270L1290 290L1310 310L1430 310" stroke-width="3.33"
                stroke="rgba(255, 163, 26, 0.5)"></path>
            <path d="M1305 190 a5 5 0 1 0 10 0 a5 5 0 1 0 -10 0zM1425 310 a5 5 0 1 0 10 0 a5 5 0 1 0 -10 0z"
                fill="rgba(255, 163, 26, 0.5)"></path>
            <path d="M1050 370L990 370" stroke-width="3.33" stroke="rgba(255, 163, 26, 0.5)"></path>
            <path d="M1045 370 a5 5 0 1 0 10 0 a5 5 0 1 0 -10 0zM985 370 a5 5 0 1 0 10 0 a5 5 0 1 0 -10 0z"
                fill="rgba(255, 163, 26, 0.5)"></path>
            <path d="M1290 90L1350 30L1350 10" stroke-width="3.33" stroke="rgba(255, 163, 26, 0.5)"></path>
            <path d="M1285 90 a5 5 0 1 0 10 0 a5 5 0 1 0 -10 0zM1345 10 a5 5 0 1 0 10 0 a5 5 0 1 0 -10 0z"
                fill="rgba(255, 163, 26, 0.5)"></path>
            <path d="M890 210L850 210L830 230" stroke-width="3.33" stroke="rgba(255, 163, 26, 0.5)"></path>
            <path d="M885 210 a5 5 0 1 0 10 0 a5 5 0 1 0 -10 0zM825 230 a5 5 0 1 0 10 0 a5 5 0 1 0 -10 0z"
                fill="rgba(255, 163, 26, 0.5)"></path>
            <path d="M1110 430L1110 490" stroke-width="3.33" stroke="rgba(255, 163, 26, 0.5)"></path>
            <path d="M1105 430 a5 5 0 1 0 10 0 a5 5 0 1 0 -10 0zM1105 490 a5 5 0 1 0 10 0 a5 5 0 1 0 -10 0z"
                fill="rgba(255, 163, 26, 0.5)"></path>
            <path d="M630 550L650 530L650 410L710 350L730 350L750 370L750 390" stroke-width="3.33"
                stroke="rgba(255, 163, 26, 0.5)"></path>
            <path d="M625 550 a5 5 0 1 0 10 0 a5 5 0 1 0 -10 0zM745 390 a5 5 0 1 0 10 0 a5 5 0 1 0 -10 0z"
                fill="rgba(255, 163, 26, 0.5)"></path>
            <path d="M790 10L710 10" stroke-width="3.33" stroke="rgba(255, 163, 26, 0.5)"></path>
            <path d="M785 10 a5 5 0 1 0 10 0 a5 5 0 1 0 -10 0zM705 10 a5 5 0 1 0 10 0 a5 5 0 1 0 -10 0z"
                fill="rgba(255, 163, 26, 0.5)"></path>
            <path d="M990 70L990 10" stroke-width="3.33" stroke="rgba(255, 163, 26, 0.5)"></path>
            <path d="M985 70 a5 5 0 1 0 10 0 a5 5 0 1 0 -10 0zM985 10 a5 5 0 1 0 10 0 a5 5 0 1 0 -10 0z"
                fill="rgba(255, 163, 26, 0.5)"></path>
            <path d="M890 270L830 270" stroke-width="3.33" stroke="rgba(255, 163, 26, 0.5)"></path>
            <path d="M885 270 a5 5 0 1 0 10 0 a5 5 0 1 0 -10 0zM825 270 a5 5 0 1 0 10 0 a5 5 0 1 0 -10 0z"
                fill="rgba(255, 163, 26, 0.5)"></path>
            <path d="M1390 210L1430 170" stroke-width="3.33" stroke="rgba(255, 163, 26, 0.5)"></path>
            <path d="M1385 210 a5 5 0 1 0 10 0 a5 5 0 1 0 -10 0zM1425 170 a5 5 0 1 0 10 0 a5 5 0 1 0 -10 0z"
                fill="rgba(255, 163, 26, 0.5)"></path>
            <path d="M470 570L450 550L430 550" stroke-width="3.33" stroke="rgba(255, 163, 26, 0.5)"></path>
            <path d="M465 570 a5 5 0 1 0 10 0 a5 5 0 1 0 -10 0zM425 550 a5 5 0 1 0 10 0 a5 5 0 1 0 -10 0z"
                fill="rgba(255, 163, 26, 0.5)"></path>
            <path d="M110 110L150 150L170 150L190 170" stroke-width="3.33" stroke="rgba(255, 163, 26, 0.5)"></path>
            <path d="M105 110 a5 5 0 1 0 10 0 a5 5 0 1 0 -10 0zM185 170 a5 5 0 1 0 10 0 a5 5 0 1 0 -10 0z"
                fill="rgba(255, 163, 26, 0.5)"></path>
            <path d="M390 450L350 410L330 410" stroke-width="3.33" stroke="rgba(255, 163, 26, 0.5)"></path>
            <path d="M385 450 a5 5 0 1 0 10 0 a5 5 0 1 0 -10 0zM325 410 a5 5 0 1 0 10 0 a5 5 0 1 0 -10 0z"
                fill="rgba(255, 163, 26, 0.5)"></path>
            <path d="M550 150L550 90L570 70L610 70" stroke-width="3.33" stroke="rgba(255, 163, 26, 0.5)"></path>
            <path d="M545 150 a5 5 0 1 0 10 0 a5 5 0 1 0 -10 0zM605 70 a5 5 0 1 0 10 0 a5 5 0 1 0 -10 0z"
                fill="rgba(255, 163, 26, 0.5)"></path>
            <path d="M810 450L810 490" stroke-width="3.33" stroke="rgba(255, 163, 26, 0.5)"></path>
            <path d="M805 450 a5 5 0 1 0 10 0 a5 5 0 1 0 -10 0zM805 490 a5 5 0 1 0 10 0 a5 5 0 1 0 -10 0z"
                fill="rgba(255, 163, 26, 0.5)"></path>
            <path d="M350 290L350 330" stroke-width="3.33" stroke="rgba(255, 163, 26, 0.5)"></path>
            <path d="M345 290 a5 5 0 1 0 10 0 a5 5 0 1 0 -10 0zM345 330 a5 5 0 1 0 10 0 a5 5 0 1 0 -10 0z"
                fill="rgba(255, 163, 26, 0.5)"></path>
            <path d="M1370 90L1330 130L1330 150L1350 170L1370 170L1390 150" stroke-width="3.33"
                stroke="rgba(255, 163, 26, 0.5)"></path>
            <path d="M1365 90 a5 5 0 1 0 10 0 a5 5 0 1 0 -10 0zM1385 150 a5 5 0 1 0 10 0 a5 5 0 1 0 -10 0z"
                fill="rgba(255, 163, 26, 0.5)"></path>
            <path d="M1050 210L1050 290" stroke-width="3.33" stroke="rgba(255, 163, 26, 0.5)"></path>
            <path d="M1045 210 a5 5 0 1 0 10 0 a5 5 0 1 0 -10 0zM1045 290 a5 5 0 1 0 10 0 a5 5 0 1 0 -10 0z"
                fill="rgba(255, 163, 26, 0.5)"></path>
            <path d="M70 570L50 590L30 590" stroke-width="3.33" stroke="rgba(255, 163, 26, 0.5)"></path>
            <path d="M65 570 a5 5 0 1 0 10 0 a5 5 0 1 0 -10 0zM25 590 a5 5 0 1 0 10 0 a5 5 0 1 0 -10 0z"
                fill="rgba(255, 163, 26, 0.5)"></path>
            <path d="M1350 390L1330 390L1310 370L1230 370" stroke-width="3.33" stroke="rgba(255, 163, 26, 0.5)"></path>
            <path d="M1345 390 a5 5 0 1 0 10 0 a5 5 0 1 0 -10 0zM1225 370 a5 5 0 1 0 10 0 a5 5 0 1 0 -10 0z"
                fill="rgba(255, 163, 26, 0.5)"></path>
            <path d="M110 30L130 30L230 130" stroke-width="3.33" stroke="rgba(255, 163, 26, 0.5)"></path>
            <path d="M105 30 a5 5 0 1 0 10 0 a5 5 0 1 0 -10 0zM225 130 a5 5 0 1 0 10 0 a5 5 0 1 0 -10 0z"
                fill="rgba(255, 163, 26, 0.5)"></path>
            <path d="M1190 450L1190 390" stroke-width="3.33" stroke="rgba(255, 163, 26, 0.5)"></path>
            <path d="M1185 450 a5 5 0 1 0 10 0 a5 5 0 1 0 -10 0zM1185 390 a5 5 0 1 0 10 0 a5 5 0 1 0 -10 0z"
                fill="rgba(255, 163, 26, 0.5)"></path>
            <path d="M310 190L370 130" stroke-width="3.33" stroke="rgba(255, 163, 26, 0.5)"></path>
            <path d="M305 190 a5 5 0 1 0 10 0 a5 5 0 1 0 -10 0zM365 130 a5 5 0 1 0 10 0 a5 5 0 1 0 -10 0z"
                fill="rgba(255, 163, 26, 0.5)"></path>
            <path d="M110 410L110 370" stroke-width="3.33" stroke="rgba(255, 163, 26, 0.5)"></path>
            <path d="M105 410 a5 5 0 1 0 10 0 a5 5 0 1 0 -10 0zM105 370 a5 5 0 1 0 10 0 a5 5 0 1 0 -10 0z"
                fill="rgba(255, 163, 26, 0.5)"></path>
            <path d="M330 30L310 50L270 50L250 30" stroke-width="3.33" stroke="rgba(255, 163, 26, 0.5)"></path>
            <path d="M325 30 a5 5 0 1 0 10 0 a5 5 0 1 0 -10 0zM245 30 a5 5 0 1 0 10 0 a5 5 0 1 0 -10 0z"
                fill="rgba(255, 163, 26, 0.5)"></path>
            <path d="M1310 430L1310 490L1350 530" stroke-width="3.33" stroke="rgba(255, 163, 26, 0.5)"></path>
            <path d="M1305 430 a5 5 0 1 0 10 0 a5 5 0 1 0 -10 0zM1345 530 a5 5 0 1 0 10 0 a5 5 0 1 0 -10 0z"
                fill="rgba(255, 163, 26, 0.5)"></path>
            <path d="M470 390L510 430L510 470" stroke-width="3.33" stroke="rgba(255, 163, 26, 0.5)"></path>
            <path d="M465 390 a5 5 0 1 0 10 0 a5 5 0 1 0 -10 0zM505 470 a5 5 0 1 0 10 0 a5 5 0 1 0 -10 0z"
                fill="rgba(255, 163, 26, 0.5)"></path>
            <path d="M90 170L50 130L50 110L70 90L110 90" stroke-width="3.33" stroke="rgba(255, 163, 26, 0.5)"></path>
            <path d="M85 170 a5 5 0 1 0 10 0 a5 5 0 1 0 -10 0zM105 90 a5 5 0 1 0 10 0 a5 5 0 1 0 -10 0z"
                fill="rgba(255, 163, 26, 0.5)"></path>
            <path d="M670 210L670 90" stroke-width="3.33" stroke="rgba(255, 163, 26, 0.5)"></path>
            <path d="M665 210 a5 5 0 1 0 10 0 a5 5 0 1 0 -10 0zM665 90 a5 5 0 1 0 10 0 a5 5 0 1 0 -10 0z"
                fill="rgba(255, 163, 26, 0.5)"></path>
            <path d="M1250 590L1250 510" stroke-width="3.33" stroke="rgba(255, 163, 26, 0.5)"></path>
            <path d="M1245 590 a5 5 0 1 0 10 0 a5 5 0 1 0 -10 0zM1245 510 a5 5 0 1 0 10 0 a5 5 0 1 0 -10 0z"
                fill="rgba(255, 163, 26, 0.5)"></path>
            <path d="M210 130L130 50L110 50" stroke-width="3.33" stroke="rgba(255, 163, 26, 0.5)"></path>
            <path d="M205 130 a5 5 0 1 0 10 0 a5 5 0 1 0 -10 0zM105 50 a5 5 0 1 0 10 0 a5 5 0 1 0 -10 0z"
                fill="rgba(255, 163, 26, 0.5)"></path>
            <path d="M130 190L30 190" stroke-width="3.33" stroke="rgba(255, 163, 26, 0.5)"></path>
            <path d="M125 190 a5 5 0 1 0 10 0 a5 5 0 1 0 -10 0zM25 190 a5 5 0 1 0 10 0 a5 5 0 1 0 -10 0z"
                fill="rgba(255, 163, 26, 0.5)"></path>
            <path d="M870 490L870 590" stroke-width="3.33" stroke="rgba(255, 163, 26, 0.5)"></path>
            <path d="M865 490 a5 5 0 1 0 10 0 a5 5 0 1 0 -10 0zM865 590 a5 5 0 1 0 10 0 a5 5 0 1 0 -10 0z"
                fill="rgba(255, 163, 26, 0.5)"></path>
            <path d="M1050 510L990 450L870 450L850 470L850 590" stroke-width="3.33" stroke="rgba(255, 163, 26, 0.5)">
            </path>
            <path d="M1045 510 a5 5 0 1 0 10 0 a5 5 0 1 0 -10 0zM845 590 a5 5 0 1 0 10 0 a5 5 0 1 0 -10 0z"
                fill="rgba(255, 163, 26, 0.5)"></path>
            <path d="M310 510L270 470" stroke-width="3.33" stroke="rgba(255, 163, 26, 0.5)"></path>
            <path d="M305 510 a5 5 0 1 0 10 0 a5 5 0 1 0 -10 0zM265 470 a5 5 0 1 0 10 0 a5 5 0 1 0 -10 0z"
                fill="rgba(255, 163, 26, 0.5)"></path>
            <path d="M910 270L870 230L850 230" stroke-width="3.33" stroke="rgba(255, 163, 26, 0.5)"></path>
            <path d="M905 270 a5 5 0 1 0 10 0 a5 5 0 1 0 -10 0zM845 230 a5 5 0 1 0 10 0 a5 5 0 1 0 -10 0z"
                fill="rgba(255, 163, 26, 0.5)"></path>
            <path d="M1390 530L1390 490L1330 430" stroke-width="3.33" stroke="rgba(255, 163, 26, 0.5)"></path>
            <path d="M1385 530 a5 5 0 1 0 10 0 a5 5 0 1 0 -10 0zM1325 430 a5 5 0 1 0 10 0 a5 5 0 1 0 -10 0z"
                fill="rgba(255, 163, 26, 0.5)"></path>
            <path d="M970 290L830 290" stroke-width="3.33" stroke="rgba(255, 163, 26, 0.5)"></path>
            <path d="M965 290 a5 5 0 1 0 10 0 a5 5 0 1 0 -10 0zM825 290 a5 5 0 1 0 10 0 a5 5 0 1 0 -10 0z"
                fill="rgba(255, 163, 26, 0.5)"></path>
            <path d="M30 250L10 270L10 310" stroke-width="3.33" stroke="rgba(255, 163, 26, 0.5)"></path>
            <path d="M25 250 a5 5 0 1 0 10 0 a5 5 0 1 0 -10 0zM5 310 a5 5 0 1 0 10 0 a5 5 0 1 0 -10 0z"
                fill="rgba(255, 163, 26, 0.5)"></path>
            <path d="M1030 110L1010 110L970 150L930 150L910 130L910 90L950 50" stroke-width="3.33"
                stroke="rgba(255, 163, 26, 0.5)"></path>
            <path d="M1025 110 a5 5 0 1 0 10 0 a5 5 0 1 0 -10 0zM945 50 a5 5 0 1 0 10 0 a5 5 0 1 0 -10 0z"
                fill="rgba(255, 163, 26, 0.5)"></path>
            <path d="M30 570L30 550L50 530" stroke-width="3.33" stroke="rgba(255, 163, 26, 0.5)"></path>
            <path d="M25 570 a5 5 0 1 0 10 0 a5 5 0 1 0 -10 0zM45 530 a5 5 0 1 0 10 0 a5 5 0 1 0 -10 0z"
                fill="rgba(255, 163, 26, 0.5)"></path>
            <path d="M1090 370L1110 370L1130 350" stroke-width="3.33" stroke="rgba(255, 163, 26, 0.5)"></path>
            <path d="M1085 370 a5 5 0 1 0 10 0 a5 5 0 1 0 -10 0zM1125 350 a5 5 0 1 0 10 0 a5 5 0 1 0 -10 0z"
                fill="rgba(255, 163, 26, 0.5)"></path>
            <path d="M1010 190L1010 150L1050 110L1050 10" stroke-width="3.33" stroke="rgba(255, 163, 26, 0.5)"></path>
            <path d="M1005 190 a5 5 0 1 0 10 0 a5 5 0 1 0 -10 0zM1045 10 a5 5 0 1 0 10 0 a5 5 0 1 0 -10 0z"
                fill="rgba(255, 163, 26, 0.5)"></path>
            <path d="M730 550L710 570L690 570" stroke-width="3.33" stroke="rgba(255, 163, 26, 0.5)"></path>
            <path d="M725 550 a5 5 0 1 0 10 0 a5 5 0 1 0 -10 0zM685 570 a5 5 0 1 0 10 0 a5 5 0 1 0 -10 0z"
                fill="rgba(255, 163, 26, 0.5)"></path>
            <path d="M1010 230L990 230L970 210" stroke-width="3.33" stroke="rgba(255, 163, 26, 0.5)"></path>
            <path d="M1005 230 a5 5 0 1 0 10 0 a5 5 0 1 0 -10 0zM965 210 a5 5 0 1 0 10 0 a5 5 0 1 0 -10 0z"
                fill="rgba(255, 163, 26, 0.5)"></path>
            <path d="M270 150L250 170L250 190" stroke-width="3.33" stroke="rgba(255, 163, 26, 0.5)"></path>
            <path d="M265 150 a5 5 0 1 0 10 0 a5 5 0 1 0 -10 0zM245 190 a5 5 0 1 0 10 0 a5 5 0 1 0 -10 0z"
                fill="rgba(255, 163, 26, 0.5)"></path>
            <path d="M1210 590L1150 590" stroke-width="3.33" stroke="rgba(255, 163, 26, 0.5)"></path>
            <path d="M1205 590 a5 5 0 1 0 10 0 a5 5 0 1 0 -10 0zM1145 590 a5 5 0 1 0 10 0 a5 5 0 1 0 -10 0z"
                fill="rgba(255, 163, 26, 0.5)"></path>
            <path d="M310 590L310 550L270 510L270 490" stroke-width="3.33" stroke="rgba(255, 163, 26, 0.5)"></path>
            <path d="M305 590 a5 5 0 1 0 10 0 a5 5 0 1 0 -10 0zM265 490 a5 5 0 1 0 10 0 a5 5 0 1 0 -10 0z"
                fill="rgba(255, 163, 26, 0.5)"></path>
            <path d="M1390 290L1390 250L1370 230" stroke-width="3.33" stroke="rgba(255, 163, 26, 0.5)"></path>
            <path d="M1385 290 a5 5 0 1 0 10 0 a5 5 0 1 0 -10 0zM1365 230 a5 5 0 1 0 10 0 a5 5 0 1 0 -10 0z"
                fill="rgba(255, 163, 26, 0.5)"></path>
            <path d="M570 370L550 390L530 390L510 370" stroke-width="3.33" stroke="rgba(255, 163, 26, 0.5)"></path>
            <path d="M565 370 a5 5 0 1 0 10 0 a5 5 0 1 0 -10 0zM505 370 a5 5 0 1 0 10 0 a5 5 0 1 0 -10 0z"
                fill="rgba(255, 163, 26, 0.5)"></path>
            <path d="M1030 170L1030 150L1050 130" stroke-width="3.33" stroke="rgba(255, 163, 26, 0.5)"></path>
            <path d="M1025 170 a5 5 0 1 0 10 0 a5 5 0 1 0 -10 0zM1045 130 a5 5 0 1 0 10 0 a5 5 0 1 0 -10 0z"
                fill="rgba(255, 163, 26, 0.5)"></path>
            <path d="M230 550L230 430" stroke-width="3.33" stroke="rgba(255, 163, 26, 0.5)"></path>
            <path d="M225 550 a5 5 0 1 0 10 0 a5 5 0 1 0 -10 0zM225 430 a5 5 0 1 0 10 0 a5 5 0 1 0 -10 0z"
                fill="rgba(255, 163, 26, 0.5)"></path>
            <path d="M970 530L990 530L1010 510L1010 490L990 470L870 470" stroke-width="3.33"
                stroke="rgba(255, 163, 26, 0.5)"></path>
            <path d="M965 530 a5 5 0 1 0 10 0 a5 5 0 1 0 -10 0zM865 470 a5 5 0 1 0 10 0 a5 5 0 1 0 -10 0z"
                fill="rgba(255, 163, 26, 0.5)"></path>
            <path d="M110 510L70 510L50 490L50 430" stroke-width="3.33" stroke="rgba(255, 163, 26, 0.5)"></path>
            <path d="M105 510 a5 5 0 1 0 10 0 a5 5 0 1 0 -10 0zM45 430 a5 5 0 1 0 10 0 a5 5 0 1 0 -10 0z"
                fill="rgba(255, 163, 26, 0.5)"></path>
            <path d="M710 290L730 290L750 270L750 230" stroke-width="3.33" stroke="rgba(255, 163, 26, 0.5)"></path>
            <path d="M705 290 a5 5 0 1 0 10 0 a5 5 0 1 0 -10 0zM745 230 a5 5 0 1 0 10 0 a5 5 0 1 0 -10 0z"
                fill="rgba(255, 163, 26, 0.5)"></path>
            <path d="M50 250L30 270L30 290" stroke-width="3.33" stroke="rgba(255, 163, 26, 0.5)"></path>
            <path d="M45 250 a5 5 0 1 0 10 0 a5 5 0 1 0 -10 0zM25 290 a5 5 0 1 0 10 0 a5 5 0 1 0 -10 0z"
                fill="rgba(255, 163, 26, 0.5)"></path>
            <path d="M630 110L630 150" stroke-width="3.33" stroke="rgba(255, 163, 26, 0.5)"></path>
            <path d="M625 110 a5 5 0 1 0 10 0 a5 5 0 1 0 -10 0zM625 150 a5 5 0 1 0 10 0 a5 5 0 1 0 -10 0z"
                fill="rgba(255, 163, 26, 0.5)"></path>
            <path d="M810 30L810 50L830 70L850 70" stroke-width="3.33" stroke="rgba(255, 163, 26, 0.5)"></path>
            <path d="M805 30 a5 5 0 1 0 10 0 a5 5 0 1 0 -10 0zM845 70 a5 5 0 1 0 10 0 a5 5 0 1 0 -10 0z"
                fill="rgba(255, 163, 26, 0.5)"></path>
            <path d="M930 370L870 310L850 310" stroke-width="3.33" stroke="rgba(255, 163, 26, 0.5)"></path>
            <path d="M925 370 a5 5 0 1 0 10 0 a5 5 0 1 0 -10 0zM845 310 a5 5 0 1 0 10 0 a5 5 0 1 0 -10 0z"
                fill="rgba(255, 163, 26, 0.5)"></path>
            <path d="M330 150L330 110" stroke-width="3.33" stroke="rgba(255, 163, 26, 0.5)"></path>
            <path d="M325 150 a5 5 0 1 0 10 0 a5 5 0 1 0 -10 0zM325 110 a5 5 0 1 0 10 0 a5 5 0 1 0 -10 0z"
                fill="rgba(255, 163, 26, 0.5)"></path>
            <path d="M450 230L370 150" stroke-width="3.33" stroke="rgba(255, 163, 26, 0.5)"></path>
            <path d="M445 230 a5 5 0 1 0 10 0 a5 5 0 1 0 -10 0zM365 150 a5 5 0 1 0 10 0 a5 5 0 1 0 -10 0z"
                fill="rgba(255, 163, 26, 0.5)"></path>
            <path d="M1190 30L1150 30L1130 50" stroke-width="3.33" stroke="rgba(255, 163, 26, 0.5)"></path>
            <path d="M1185 30 a5 5 0 1 0 10 0 a5 5 0 1 0 -10 0zM1125 50 a5 5 0 1 0 10 0 a5 5 0 1 0 -10 0z"
                fill="rgba(255, 163, 26, 0.5)"></path>
            <path d="M1090 470L1050 430" stroke-width="3.33" stroke="rgba(255, 163, 26, 0.5)"></path>
            <path d="M1085 470 a5 5 0 1 0 10 0 a5 5 0 1 0 -10 0zM1045 430 a5 5 0 1 0 10 0 a5 5 0 1 0 -10 0z"
                fill="rgba(255, 163, 26, 0.5)"></path>
            <path d="M930 130L950 110L990 110L1030 70L1030 10" stroke-width="3.33" stroke="rgba(255, 163, 26, 0.5)">
            </path>
            <path d="M925 130 a5 5 0 1 0 10 0 a5 5 0 1 0 -10 0zM1025 10 a5 5 0 1 0 10 0 a5 5 0 1 0 -10 0z"
                fill="rgba(255, 163, 26, 0.5)"></path>
            <path d="M290 30L310 30L330 10L370 10" stroke-width="3.33" stroke="rgba(255, 163, 26, 0.5)"></path>
            <path d="M285 30 a5 5 0 1 0 10 0 a5 5 0 1 0 -10 0zM365 10 a5 5 0 1 0 10 0 a5 5 0 1 0 -10 0z"
                fill="rgba(255, 163, 26, 0.5)"></path>
            <path d="M1230 130L1210 150L1170 150" stroke-width="3.33" stroke="rgba(255, 163, 26, 0.5)"></path>
            <path d="M1225 130 a5 5 0 1 0 10 0 a5 5 0 1 0 -10 0zM1165 150 a5 5 0 1 0 10 0 a5 5 0 1 0 -10 0z"
                fill="rgba(255, 163, 26, 0.5)"></path>
            <path d="M470 410L490 430L490 450" stroke-width="3.33" stroke="rgba(255, 163, 26, 0.5)"></path>
            <path d="M465 410 a5 5 0 1 0 10 0 a5 5 0 1 0 -10 0zM485 450 a5 5 0 1 0 10 0 a5 5 0 1 0 -10 0z"
                fill="rgba(255, 163, 26, 0.5)"></path>
            <path d="M1070 210L1070 270" stroke-width="3.33" stroke="rgba(255, 163, 26, 0.5)"></path>
            <path d="M1065 210 a5 5 0 1 0 10 0 a5 5 0 1 0 -10 0zM1065 270 a5 5 0 1 0 10 0 a5 5 0 1 0 -10 0z"
                fill="rgba(255, 163, 26, 0.5)"></path>
            <path d="M30 50L10 70L10 90" stroke-width="3.33" stroke="rgba(255, 163, 26, 0.5)"></path>
            <path d="M25 50 a5 5 0 1 0 10 0 a5 5 0 1 0 -10 0zM5 90 a5 5 0 1 0 10 0 a5 5 0 1 0 -10 0z"
                fill="rgba(255, 163, 26, 0.5)"></path>
            <path d="M750 490L790 490" stroke-width="3.33" stroke="rgba(255, 163, 26, 0.5)"></path>
            <path d="M745 490 a5 5 0 1 0 10 0 a5 5 0 1 0 -10 0zM785 490 a5 5 0 1 0 10 0 a5 5 0 1 0 -10 0z"
                fill="rgba(255, 163, 26, 0.5)"></path>
            <path d="M130 430L130 390" stroke-width="3.33" stroke="rgba(255, 163, 26, 0.5)"></path>
            <path d="M125 430 a5 5 0 1 0 10 0 a5 5 0 1 0 -10 0zM125 390 a5 5 0 1 0 10 0 a5 5 0 1 0 -10 0z"
                fill="rgba(255, 163, 26, 0.5)"></path>
            <path d="M130 150L150 170L150 190" stroke-width="3.33" stroke="rgba(255, 163, 26, 0.5)"></path>
            <path d="M125 150 a5 5 0 1 0 10 0 a5 5 0 1 0 -10 0zM145 190 a5 5 0 1 0 10 0 a5 5 0 1 0 -10 0z"
                fill="rgba(255, 163, 26, 0.5)"></path>
            <path d="M1070 190L1030 190" stroke-width="3.33" stroke="rgba(255, 163, 26, 0.5)"></path>
            <path d="M1065 190 a5 5 0 1 0 10 0 a5 5 0 1 0 -10 0zM1025 190 a5 5 0 1 0 10 0 a5 5 0 1 0 -10 0z"
                fill="rgba(255, 163, 26, 0.5)"></path>
            <path d="M1390 230L1430 230" stroke-width="3.33" stroke="rgba(255, 163, 26, 0.5)"></path>
            <path d="M1385 230 a5 5 0 1 0 10 0 a5 5 0 1 0 -10 0zM1425 230 a5 5 0 1 0 10 0 a5 5 0 1 0 -10 0z"
                fill="rgba(255, 163, 26, 0.5)"></path>
            <path d="M1430 370L1410 370L1390 390L1370 390L1350 370L1330 370" stroke-width="3.33"
                stroke="rgba(255, 163, 26, 0.5)"></path>
            <path d="M1425 370 a5 5 0 1 0 10 0 a5 5 0 1 0 -10 0zM1325 370 a5 5 0 1 0 10 0 a5 5 0 1 0 -10 0z"
                fill="rgba(255, 163, 26, 0.5)"></path>
            <path d="M450 170L450 130" stroke-width="3.33" stroke="rgba(255, 163, 26, 0.5)"></path>
            <path d="M445 170 a5 5 0 1 0 10 0 a5 5 0 1 0 -10 0zM445 130 a5 5 0 1 0 10 0 a5 5 0 1 0 -10 0z"
                fill="rgba(255, 163, 26, 0.5)"></path>
            <path d="M770 130L750 130L730 110" stroke-width="3.33" stroke="rgba(255, 163, 26, 0.5)"></path>
            <path d="M765 130 a5 5 0 1 0 10 0 a5 5 0 1 0 -10 0zM725 110 a5 5 0 1 0 10 0 a5 5 0 1 0 -10 0z"
                fill="rgba(255, 163, 26, 0.5)"></path>
            <path d="M210 90L230 70L230 50" stroke-width="3.33" stroke="rgba(255, 163, 26, 0.5)"></path>
            <path d="M205 90 a5 5 0 1 0 10 0 a5 5 0 1 0 -10 0zM225 50 a5 5 0 1 0 10 0 a5 5 0 1 0 -10 0z"
                fill="rgba(255, 163, 26, 0.5)"></path>
            <path d="M1310 290L1330 270L1350 270L1370 290" stroke-width="3.33" stroke="rgba(255, 163, 26, 0.5)"></path>
            <path d="M1305 290 a5 5 0 1 0 10 0 a5 5 0 1 0 -10 0zM1365 290 a5 5 0 1 0 10 0 a5 5 0 1 0 -10 0z"
                fill="rgba(255, 163, 26, 0.5)"></path>
            <path d="M170 350L210 310" stroke-width="3.33" stroke="rgba(255, 163, 26, 0.5)"></path>
            <path d="M165 350 a5 5 0 1 0 10 0 a5 5 0 1 0 -10 0zM205 310 a5 5 0 1 0 10 0 a5 5 0 1 0 -10 0z"
                fill="rgba(255, 163, 26, 0.5)"></path>
            <path d="M1290 390L1230 390" stroke-width="3.33" stroke="rgba(255, 163, 26, 0.5)"></path>
            <path d="M1285 390 a5 5 0 1 0 10 0 a5 5 0 1 0 -10 0zM1225 390 a5 5 0 1 0 10 0 a5 5 0 1 0 -10 0z"
                fill="rgba(255, 163, 26, 0.5)"></path>
            <path d="M670 490L710 490" stroke-width="3.33" stroke="rgba(255, 163, 26, 0.5)"></path>
            <path d="M665 490 a5 5 0 1 0 10 0 a5 5 0 1 0 -10 0zM705 490 a5 5 0 1 0 10 0 a5 5 0 1 0 -10 0z"
                fill="rgba(255, 163, 26, 0.5)"></path>
            <path d="M470 310L470 290L450 270L430 270" stroke-width="3.33" stroke="rgba(255, 163, 26, 0.5)"></path>
            <path d="M465 310 a5 5 0 1 0 10 0 a5 5 0 1 0 -10 0zM425 270 a5 5 0 1 0 10 0 a5 5 0 1 0 -10 0z"
                fill="rgba(255, 163, 26, 0.5)"></path>
            <path d="M530 170L510 150L510 90" stroke-width="3.33" stroke="rgba(255, 163, 26, 0.5)"></path>
            <path d="M525 170 a5 5 0 1 0 10 0 a5 5 0 1 0 -10 0zM505 90 a5 5 0 1 0 10 0 a5 5 0 1 0 -10 0z"
                fill="rgba(255, 163, 26, 0.5)"></path>
            <path d="M1230 590L1230 550" stroke-width="3.33" stroke="rgba(255, 163, 26, 0.5)"></path>
            <path d="M1225 590 a5 5 0 1 0 10 0 a5 5 0 1 0 -10 0zM1225 550 a5 5 0 1 0 10 0 a5 5 0 1 0 -10 0z"
                fill="rgba(255, 163, 26, 0.5)"></path>
            <path d="M890 590L890 490" stroke-width="3.33" stroke="rgba(255, 163, 26, 0.5)"></path>
            <path d="M885 590 a5 5 0 1 0 10 0 a5 5 0 1 0 -10 0zM885 490 a5 5 0 1 0 10 0 a5 5 0 1 0 -10 0z"
                fill="rgba(255, 163, 26, 0.5)"></path>
            <path d="M550 170L510 210" stroke-width="3.33" stroke="rgba(255, 163, 26, 0.5)"></path>
            <path d="M545 170 a5 5 0 1 0 10 0 a5 5 0 1 0 -10 0zM505 210 a5 5 0 1 0 10 0 a5 5 0 1 0 -10 0z"
                fill="rgba(255, 163, 26, 0.5)"></path>
            <path d="M1290 470L1270 450L1270 430" stroke-width="3.33" stroke="rgba(255, 163, 26, 0.5)"></path>
            <path d="M1285 470 a5 5 0 1 0 10 0 a5 5 0 1 0 -10 0zM1265 430 a5 5 0 1 0 10 0 a5 5 0 1 0 -10 0z"
                fill="rgba(255, 163, 26, 0.5)"></path>
            <path d="M930 570L930 490" stroke-width="3.33" stroke="rgba(255, 163, 26, 0.5)"></path>
            <path d="M925 570 a5 5 0 1 0 10 0 a5 5 0 1 0 -10 0zM925 490 a5 5 0 1 0 10 0 a5 5 0 1 0 -10 0z"
                fill="rgba(255, 163, 26, 0.5)"></path>
            <path d="M610 490L630 510L630 530" stroke-width="3.33" stroke="rgba(255, 163, 26, 0.5)"></path>
            <path d="M605 490 a5 5 0 1 0 10 0 a5 5 0 1 0 -10 0zM625 530 a5 5 0 1 0 10 0 a5 5 0 1 0 -10 0z"
                fill="rgba(255, 163, 26, 0.5)"></path>
            <path d="M550 330L550 370" stroke-width="3.33" stroke="rgba(255, 163, 26, 0.5)"></path>
            <path d="M545 330 a5 5 0 1 0 10 0 a5 5 0 1 0 -10 0zM545 370 a5 5 0 1 0 10 0 a5 5 0 1 0 -10 0z"
                fill="rgba(255, 163, 26, 0.5)"></path>
            <path d="M530 90L530 150" stroke-width="3.33" stroke="rgba(255, 163, 26, 0.5)"></path>
            <path d="M525 90 a5 5 0 1 0 10 0 a5 5 0 1 0 -10 0zM525 150 a5 5 0 1 0 10 0 a5 5 0 1 0 -10 0z"
                fill="rgba(255, 163, 26, 0.5)"></path>
            <path d="M1350 590L1310 550L1270 550" stroke-width="3.33" stroke="rgba(255, 163, 26, 0.5)"></path>
            <path d="M1345 590 a5 5 0 1 0 10 0 a5 5 0 1 0 -10 0zM1265 550 a5 5 0 1 0 10 0 a5 5 0 1 0 -10 0z"
                fill="rgba(255, 163, 26, 0.5)"></path>
            <path d="M570 350L570 310" stroke-width="3.33" stroke="rgba(255, 163, 26, 0.5)"></path>
            <path d="M565 350 a5 5 0 1 0 10 0 a5 5 0 1 0 -10 0zM565 310 a5 5 0 1 0 10 0 a5 5 0 1 0 -10 0z"
                fill="rgba(255, 163, 26, 0.5)"></path>
            <path d="M310 370L350 370" stroke-width="3.33" stroke="rgba(255, 163, 26, 0.5)"></path>
            <path d="M305 370 a5 5 0 1 0 10 0 a5 5 0 1 0 -10 0zM345 370 a5 5 0 1 0 10 0 a5 5 0 1 0 -10 0z"
                fill="rgba(255, 163, 26, 0.5)"></path>
            <path d="M30 10L30 30L50 50" stroke-width="3.33" stroke="rgba(255, 163, 26, 0.5)"></path>
            <path d="M25 10 a5 5 0 1 0 10 0 a5 5 0 1 0 -10 0zM45 50 a5 5 0 1 0 10 0 a5 5 0 1 0 -10 0z"
                fill="rgba(255, 163, 26, 0.5)"></path>
            <path d="M1150 50L1170 70L1190 70" stroke-width="3.33" stroke="rgba(255, 163, 26, 0.5)"></path>
            <path d="M1145 50 a5 5 0 1 0 10 0 a5 5 0 1 0 -10 0zM1185 70 a5 5 0 1 0 10 0 a5 5 0 1 0 -10 0z"
                fill="rgba(255, 163, 26, 0.5)"></path>
        </g>
    </g>
    <defs>
        <mask id="SvgjsMask1086">
            <rect width="1440" height="600" fill="#ffffff"></rect>
        </mask>
        <mask id="SvgjsMask1087">
            <rect width="1440" height="600" fill="white"></rect>
            <path d="M7.5 330 a2.5 2.5 0 1 0 5 0 a2.5 2.5 0 1 0 -5 0zM387.5 290 a2.5 2.5 0 1 0 5 0 a2.5 2.5 0 1 0 -5 0z"
                fill="black"></path>
            <path
                d="M307.5 110 a2.5 2.5 0 1 0 5 0 a2.5 2.5 0 1 0 -5 0zM687.5 10 a2.5 2.5 0 1 0 5 0 a2.5 2.5 0 1 0 -5 0z"
                fill="black"></path>
            <path
                d="M87.5 570 a2.5 2.5 0 1 0 5 0 a2.5 2.5 0 1 0 -5 0zM287.5 310 a2.5 2.5 0 1 0 5 0 a2.5 2.5 0 1 0 -5 0z"
                fill="black"></path>
            <path
                d="M407.5 550 a2.5 2.5 0 1 0 5 0 a2.5 2.5 0 1 0 -5 0zM407.5 410 a2.5 2.5 0 1 0 5 0 a2.5 2.5 0 1 0 -5 0z"
                fill="black"></path>
            <path
                d="M527.5 70 a2.5 2.5 0 1 0 5 0 a2.5 2.5 0 1 0 -5 0zM907.5 170 a2.5 2.5 0 1 0 5 0 a2.5 2.5 0 1 0 -5 0z"
                fill="black"></path>
            <path
                d="M827.5 390 a2.5 2.5 0 1 0 5 0 a2.5 2.5 0 1 0 -5 0zM827.5 590 a2.5 2.5 0 1 0 5 0 a2.5 2.5 0 1 0 -5 0z"
                fill="black"></path>
            <path
                d="M927.5 410 a2.5 2.5 0 1 0 5 0 a2.5 2.5 0 1 0 -5 0zM1247.5 210 a2.5 2.5 0 1 0 5 0 a2.5 2.5 0 1 0 -5 0z"
                fill="black"></path>
            <path
                d="M1207.5 90 a2.5 2.5 0 1 0 5 0 a2.5 2.5 0 1 0 -5 0zM1207.5 10 a2.5 2.5 0 1 0 5 0 a2.5 2.5 0 1 0 -5 0z"
                fill="black"></path>
            <path
                d="M907.5 510 a2.5 2.5 0 1 0 5 0 a2.5 2.5 0 1 0 -5 0zM907.5 590 a2.5 2.5 0 1 0 5 0 a2.5 2.5 0 1 0 -5 0z"
                fill="black"></path>
            <path
                d="M1147.5 170 a2.5 2.5 0 1 0 5 0 a2.5 2.5 0 1 0 -5 0zM1107.5 10 a2.5 2.5 0 1 0 5 0 a2.5 2.5 0 1 0 -5 0z"
                fill="black"></path>
            <path
                d="M1287.5 150 a2.5 2.5 0 1 0 5 0 a2.5 2.5 0 1 0 -5 0zM1427.5 10 a2.5 2.5 0 1 0 5 0 a2.5 2.5 0 1 0 -5 0z"
                fill="black"></path>
            <path
                d="M987.5 390 a2.5 2.5 0 1 0 5 0 a2.5 2.5 0 1 0 -5 0zM1147.5 190 a2.5 2.5 0 1 0 5 0 a2.5 2.5 0 1 0 -5 0z"
                fill="black"></path>
            <path
                d="M1087.5 510 a2.5 2.5 0 1 0 5 0 a2.5 2.5 0 1 0 -5 0zM847.5 430 a2.5 2.5 0 1 0 5 0 a2.5 2.5 0 1 0 -5 0z"
                fill="black"></path>
            <path
                d="M467.5 530 a2.5 2.5 0 1 0 5 0 a2.5 2.5 0 1 0 -5 0zM247.5 350 a2.5 2.5 0 1 0 5 0 a2.5 2.5 0 1 0 -5 0z"
                fill="black"></path>
            <path
                d="M687.5 530 a2.5 2.5 0 1 0 5 0 a2.5 2.5 0 1 0 -5 0zM787.5 150 a2.5 2.5 0 1 0 5 0 a2.5 2.5 0 1 0 -5 0z"
                fill="black"></path>
            <path
                d="M587.5 130 a2.5 2.5 0 1 0 5 0 a2.5 2.5 0 1 0 -5 0zM567.5 510 a2.5 2.5 0 1 0 5 0 a2.5 2.5 0 1 0 -5 0z"
                fill="black"></path>
            <path
                d="M1127.5 550 a2.5 2.5 0 1 0 5 0 a2.5 2.5 0 1 0 -5 0zM1427.5 510 a2.5 2.5 0 1 0 5 0 a2.5 2.5 0 1 0 -5 0z"
                fill="black"></path>
            <path
                d="M347.5 590 a2.5 2.5 0 1 0 5 0 a2.5 2.5 0 1 0 -5 0zM207.5 370 a2.5 2.5 0 1 0 5 0 a2.5 2.5 0 1 0 -5 0z"
                fill="black"></path>
            <path
                d="M1327.5 250 a2.5 2.5 0 1 0 5 0 a2.5 2.5 0 1 0 -5 0zM1427.5 30 a2.5 2.5 0 1 0 5 0 a2.5 2.5 0 1 0 -5 0z"
                fill="black"></path>
            <path
                d="M67.5 450 a2.5 2.5 0 1 0 5 0 a2.5 2.5 0 1 0 -5 0zM327.5 250 a2.5 2.5 0 1 0 5 0 a2.5 2.5 0 1 0 -5 0z"
                fill="black"></path>
            <path
                d="M207.5 390 a2.5 2.5 0 1 0 5 0 a2.5 2.5 0 1 0 -5 0zM187.5 590 a2.5 2.5 0 1 0 5 0 a2.5 2.5 0 1 0 -5 0z"
                fill="black"></path>
            <path
                d="M1167.5 450 a2.5 2.5 0 1 0 5 0 a2.5 2.5 0 1 0 -5 0zM1427.5 350 a2.5 2.5 0 1 0 5 0 a2.5 2.5 0 1 0 -5 0z"
                fill="black"></path>
            <path
                d="M1187.5 230 a2.5 2.5 0 1 0 5 0 a2.5 2.5 0 1 0 -5 0zM867.5 390 a2.5 2.5 0 1 0 5 0 a2.5 2.5 0 1 0 -5 0z"
                fill="black"></path>
            <path
                d="M707.5 310 a2.5 2.5 0 1 0 5 0 a2.5 2.5 0 1 0 -5 0zM607.5 370 a2.5 2.5 0 1 0 5 0 a2.5 2.5 0 1 0 -5 0z"
                fill="black"></path>
            <path d="M87.5 50 a2.5 2.5 0 1 0 5 0 a2.5 2.5 0 1 0 -5 0zM87.5 10 a2.5 2.5 0 1 0 5 0 a2.5 2.5 0 1 0 -5 0z"
                fill="black"></path>
            <path
                d="M807.5 550 a2.5 2.5 0 1 0 5 0 a2.5 2.5 0 1 0 -5 0zM807.5 590 a2.5 2.5 0 1 0 5 0 a2.5 2.5 0 1 0 -5 0z"
                fill="black"></path>
            <path
                d="M707.5 130 a2.5 2.5 0 1 0 5 0 a2.5 2.5 0 1 0 -5 0zM607.5 390 a2.5 2.5 0 1 0 5 0 a2.5 2.5 0 1 0 -5 0z"
                fill="black"></path>
            <path
                d="M467.5 150 a2.5 2.5 0 1 0 5 0 a2.5 2.5 0 1 0 -5 0zM387.5 50 a2.5 2.5 0 1 0 5 0 a2.5 2.5 0 1 0 -5 0z"
                fill="black"></path>
            <path d="M187.5 190 a2.5 2.5 0 1 0 5 0 a2.5 2.5 0 1 0 -5 0zM67.5 10 a2.5 2.5 0 1 0 5 0 a2.5 2.5 0 1 0 -5 0z"
                fill="black"></path>
            <path
                d="M787.5 590 a2.5 2.5 0 1 0 5 0 a2.5 2.5 0 1 0 -5 0zM407.5 570 a2.5 2.5 0 1 0 5 0 a2.5 2.5 0 1 0 -5 0z"
                fill="black"></path>
            <path
                d="M1367.5 190 a2.5 2.5 0 1 0 5 0 a2.5 2.5 0 1 0 -5 0zM1407.5 50 a2.5 2.5 0 1 0 5 0 a2.5 2.5 0 1 0 -5 0z"
                fill="black"></path>
            <path
                d="M507.5 250 a2.5 2.5 0 1 0 5 0 a2.5 2.5 0 1 0 -5 0zM347.5 90 a2.5 2.5 0 1 0 5 0 a2.5 2.5 0 1 0 -5 0z"
                fill="black"></path>
            <path
                d="M1207.5 390 a2.5 2.5 0 1 0 5 0 a2.5 2.5 0 1 0 -5 0zM967.5 510 a2.5 2.5 0 1 0 5 0 a2.5 2.5 0 1 0 -5 0z"
                fill="black"></path>
            <path
                d="M467.5 110 a2.5 2.5 0 1 0 5 0 a2.5 2.5 0 1 0 -5 0zM467.5 30 a2.5 2.5 0 1 0 5 0 a2.5 2.5 0 1 0 -5 0z"
                fill="black"></path>
            <path
                d="M847.5 350 a2.5 2.5 0 1 0 5 0 a2.5 2.5 0 1 0 -5 0zM687.5 110 a2.5 2.5 0 1 0 5 0 a2.5 2.5 0 1 0 -5 0z"
                fill="black"></path>
            <path
                d="M1267.5 190 a2.5 2.5 0 1 0 5 0 a2.5 2.5 0 1 0 -5 0zM1267.5 330 a2.5 2.5 0 1 0 5 0 a2.5 2.5 0 1 0 -5 0z"
                fill="black"></path>
            <path
                d="M127.5 470 a2.5 2.5 0 1 0 5 0 a2.5 2.5 0 1 0 -5 0zM327.5 270 a2.5 2.5 0 1 0 5 0 a2.5 2.5 0 1 0 -5 0z"
                fill="black"></path>
            <path
                d="M707.5 470 a2.5 2.5 0 1 0 5 0 a2.5 2.5 0 1 0 -5 0zM767.5 290 a2.5 2.5 0 1 0 5 0 a2.5 2.5 0 1 0 -5 0z"
                fill="black"></path>
            <path
                d="M1107.5 250 a2.5 2.5 0 1 0 5 0 a2.5 2.5 0 1 0 -5 0zM1067.5 10 a2.5 2.5 0 1 0 5 0 a2.5 2.5 0 1 0 -5 0z"
                fill="black"></path>
            <path
                d="M1147.5 230 a2.5 2.5 0 1 0 5 0 a2.5 2.5 0 1 0 -5 0zM1147.5 310 a2.5 2.5 0 1 0 5 0 a2.5 2.5 0 1 0 -5 0z"
                fill="black"></path>
            <path
                d="M147.5 530 a2.5 2.5 0 1 0 5 0 a2.5 2.5 0 1 0 -5 0zM107.5 570 a2.5 2.5 0 1 0 5 0 a2.5 2.5 0 1 0 -5 0z"
                fill="black"></path>
            <path
                d="M1247.5 470 a2.5 2.5 0 1 0 5 0 a2.5 2.5 0 1 0 -5 0zM1087.5 590 a2.5 2.5 0 1 0 5 0 a2.5 2.5 0 1 0 -5 0z"
                fill="black"></path>
            <path
                d="M1067.5 310 a2.5 2.5 0 1 0 5 0 a2.5 2.5 0 1 0 -5 0zM827.5 110 a2.5 2.5 0 1 0 5 0 a2.5 2.5 0 1 0 -5 0z"
                fill="black"></path>
            <path
                d="M147.5 370 a2.5 2.5 0 1 0 5 0 a2.5 2.5 0 1 0 -5 0zM107.5 330 a2.5 2.5 0 1 0 5 0 a2.5 2.5 0 1 0 -5 0z"
                fill="black"></path>
            <path
                d="M247.5 590 a2.5 2.5 0 1 0 5 0 a2.5 2.5 0 1 0 -5 0zM207.5 410 a2.5 2.5 0 1 0 5 0 a2.5 2.5 0 1 0 -5 0z"
                fill="black"></path>
            <path
                d="M987.5 150 a2.5 2.5 0 1 0 5 0 a2.5 2.5 0 1 0 -5 0zM907.5 190 a2.5 2.5 0 1 0 5 0 a2.5 2.5 0 1 0 -5 0z"
                fill="black"></path>
            <path
                d="M827.5 210 a2.5 2.5 0 1 0 5 0 a2.5 2.5 0 1 0 -5 0zM827.5 150 a2.5 2.5 0 1 0 5 0 a2.5 2.5 0 1 0 -5 0z"
                fill="black"></path>
            <path d="M107.5 250 a2.5 2.5 0 1 0 5 0 a2.5 2.5 0 1 0 -5 0zM7.5 590 a2.5 2.5 0 1 0 5 0 a2.5 2.5 0 1 0 -5 0z"
                fill="black"></path>
            <path
                d="M487.5 310 a2.5 2.5 0 1 0 5 0 a2.5 2.5 0 1 0 -5 0zM727.5 50 a2.5 2.5 0 1 0 5 0 a2.5 2.5 0 1 0 -5 0z"
                fill="black"></path>
            <path
                d="M1347.5 190 a2.5 2.5 0 1 0 5 0 a2.5 2.5 0 1 0 -5 0zM1307.5 150 a2.5 2.5 0 1 0 5 0 a2.5 2.5 0 1 0 -5 0z"
                fill="black"></path>
            <path d="M147.5 30 a2.5 2.5 0 1 0 5 0 a2.5 2.5 0 1 0 -5 0zM387.5 10 a2.5 2.5 0 1 0 5 0 a2.5 2.5 0 1 0 -5 0z"
                fill="black"></path>
            <path
                d="M627.5 170 a2.5 2.5 0 1 0 5 0 a2.5 2.5 0 1 0 -5 0zM627.5 350 a2.5 2.5 0 1 0 5 0 a2.5 2.5 0 1 0 -5 0z"
                fill="black"></path>
            <path
                d="M1407.5 510 a2.5 2.5 0 1 0 5 0 a2.5 2.5 0 1 0 -5 0zM1427.5 590 a2.5 2.5 0 1 0 5 0 a2.5 2.5 0 1 0 -5 0z"
                fill="black"></path>
            <path
                d="M787.5 90 a2.5 2.5 0 1 0 5 0 a2.5 2.5 0 1 0 -5 0zM707.5 110 a2.5 2.5 0 1 0 5 0 a2.5 2.5 0 1 0 -5 0z"
                fill="black"></path>
            <path
                d="M627.5 450 a2.5 2.5 0 1 0 5 0 a2.5 2.5 0 1 0 -5 0zM607.5 410 a2.5 2.5 0 1 0 5 0 a2.5 2.5 0 1 0 -5 0z"
                fill="black"></path>
            <path
                d="M347.5 190 a2.5 2.5 0 1 0 5 0 a2.5 2.5 0 1 0 -5 0zM47.5 170 a2.5 2.5 0 1 0 5 0 a2.5 2.5 0 1 0 -5 0z"
                fill="black"></path>
            <path
                d="M1007.5 530 a2.5 2.5 0 1 0 5 0 a2.5 2.5 0 1 0 -5 0zM1167.5 470 a2.5 2.5 0 1 0 5 0 a2.5 2.5 0 1 0 -5 0z"
                fill="black"></path>
            <path
                d="M487.5 530 a2.5 2.5 0 1 0 5 0 a2.5 2.5 0 1 0 -5 0zM507.5 570 a2.5 2.5 0 1 0 5 0 a2.5 2.5 0 1 0 -5 0z"
                fill="black"></path>
            <path
                d="M807.5 510 a2.5 2.5 0 1 0 5 0 a2.5 2.5 0 1 0 -5 0zM427.5 430 a2.5 2.5 0 1 0 5 0 a2.5 2.5 0 1 0 -5 0z"
                fill="black"></path>
            <path
                d="M867.5 110 a2.5 2.5 0 1 0 5 0 a2.5 2.5 0 1 0 -5 0zM867.5 10 a2.5 2.5 0 1 0 5 0 a2.5 2.5 0 1 0 -5 0z"
                fill="black"></path>
            <path
                d="M487.5 370 a2.5 2.5 0 1 0 5 0 a2.5 2.5 0 1 0 -5 0zM367.5 290 a2.5 2.5 0 1 0 5 0 a2.5 2.5 0 1 0 -5 0z"
                fill="black"></path>
            <path
                d="M1027.5 230 a2.5 2.5 0 1 0 5 0 a2.5 2.5 0 1 0 -5 0zM1027.5 290 a2.5 2.5 0 1 0 5 0 a2.5 2.5 0 1 0 -5 0z"
                fill="black"></path>
            <path d="M267.5 10 a2.5 2.5 0 1 0 5 0 a2.5 2.5 0 1 0 -5 0zM107.5 10 a2.5 2.5 0 1 0 5 0 a2.5 2.5 0 1 0 -5 0z"
                fill="black"></path>
            <path
                d="M707.5 190 a2.5 2.5 0 1 0 5 0 a2.5 2.5 0 1 0 -5 0zM747.5 190 a2.5 2.5 0 1 0 5 0 a2.5 2.5 0 1 0 -5 0z"
                fill="black"></path>
            <path
                d="M487.5 30 a2.5 2.5 0 1 0 5 0 a2.5 2.5 0 1 0 -5 0zM527.5 250 a2.5 2.5 0 1 0 5 0 a2.5 2.5 0 1 0 -5 0z"
                fill="black"></path>
            <path
                d="M327.5 290 a2.5 2.5 0 1 0 5 0 a2.5 2.5 0 1 0 -5 0zM167.5 370 a2.5 2.5 0 1 0 5 0 a2.5 2.5 0 1 0 -5 0z"
                fill="black"></path>
            <path
                d="M867.5 250 a2.5 2.5 0 1 0 5 0 a2.5 2.5 0 1 0 -5 0zM827.5 250 a2.5 2.5 0 1 0 5 0 a2.5 2.5 0 1 0 -5 0z"
                fill="black"></path>
            <path
                d="M347.5 390 a2.5 2.5 0 1 0 5 0 a2.5 2.5 0 1 0 -5 0zM267.5 350 a2.5 2.5 0 1 0 5 0 a2.5 2.5 0 1 0 -5 0z"
                fill="black"></path>
            <path
                d="M747.5 570 a2.5 2.5 0 1 0 5 0 a2.5 2.5 0 1 0 -5 0zM787.5 570 a2.5 2.5 0 1 0 5 0 a2.5 2.5 0 1 0 -5 0z"
                fill="black"></path>
            <path
                d="M387.5 270 a2.5 2.5 0 1 0 5 0 a2.5 2.5 0 1 0 -5 0zM487.5 290 a2.5 2.5 0 1 0 5 0 a2.5 2.5 0 1 0 -5 0z"
                fill="black"></path>
            <path
                d="M607.5 210 a2.5 2.5 0 1 0 5 0 a2.5 2.5 0 1 0 -5 0zM707.5 70 a2.5 2.5 0 1 0 5 0 a2.5 2.5 0 1 0 -5 0z"
                fill="black"></path>
            <path
                d="M687.5 410 a2.5 2.5 0 1 0 5 0 a2.5 2.5 0 1 0 -5 0zM747.5 410 a2.5 2.5 0 1 0 5 0 a2.5 2.5 0 1 0 -5 0z"
                fill="black"></path>
            <path
                d="M1107.5 150 a2.5 2.5 0 1 0 5 0 a2.5 2.5 0 1 0 -5 0zM1127.5 310 a2.5 2.5 0 1 0 5 0 a2.5 2.5 0 1 0 -5 0z"
                fill="black"></path>
            <path
                d="M1067.5 290 a2.5 2.5 0 1 0 5 0 a2.5 2.5 0 1 0 -5 0zM1107.5 310 a2.5 2.5 0 1 0 5 0 a2.5 2.5 0 1 0 -5 0z"
                fill="black"></path>
            <path
                d="M1127.5 70 a2.5 2.5 0 1 0 5 0 a2.5 2.5 0 1 0 -5 0zM1347.5 210 a2.5 2.5 0 1 0 5 0 a2.5 2.5 0 1 0 -5 0z"
                fill="black"></path>
            <path
                d="M847.5 370 a2.5 2.5 0 1 0 5 0 a2.5 2.5 0 1 0 -5 0zM807.5 370 a2.5 2.5 0 1 0 5 0 a2.5 2.5 0 1 0 -5 0z"
                fill="black"></path>
            <path
                d="M607.5 530 a2.5 2.5 0 1 0 5 0 a2.5 2.5 0 1 0 -5 0zM547.5 530 a2.5 2.5 0 1 0 5 0 a2.5 2.5 0 1 0 -5 0z"
                fill="black"></path>
            <path
                d="M227.5 150 a2.5 2.5 0 1 0 5 0 a2.5 2.5 0 1 0 -5 0zM307.5 90 a2.5 2.5 0 1 0 5 0 a2.5 2.5 0 1 0 -5 0z"
                fill="black"></path>
            <path
                d="M567.5 290 a2.5 2.5 0 1 0 5 0 a2.5 2.5 0 1 0 -5 0zM387.5 350 a2.5 2.5 0 1 0 5 0 a2.5 2.5 0 1 0 -5 0z"
                fill="black"></path>
            <path
                d="M207.5 550 a2.5 2.5 0 1 0 5 0 a2.5 2.5 0 1 0 -5 0zM207.5 430 a2.5 2.5 0 1 0 5 0 a2.5 2.5 0 1 0 -5 0z"
                fill="black"></path>
            <path
                d="M1247.5 450 a2.5 2.5 0 1 0 5 0 a2.5 2.5 0 1 0 -5 0zM1407.5 590 a2.5 2.5 0 1 0 5 0 a2.5 2.5 0 1 0 -5 0z"
                fill="black"></path>
            <path
                d="M387.5 430 a2.5 2.5 0 1 0 5 0 a2.5 2.5 0 1 0 -5 0zM487.5 510 a2.5 2.5 0 1 0 5 0 a2.5 2.5 0 1 0 -5 0z"
                fill="black"></path>
            <path
                d="M307.5 130 a2.5 2.5 0 1 0 5 0 a2.5 2.5 0 1 0 -5 0zM227.5 170 a2.5 2.5 0 1 0 5 0 a2.5 2.5 0 1 0 -5 0z"
                fill="black"></path>
            <path
                d="M887.5 310 a2.5 2.5 0 1 0 5 0 a2.5 2.5 0 1 0 -5 0zM987.5 310 a2.5 2.5 0 1 0 5 0 a2.5 2.5 0 1 0 -5 0z"
                fill="black"></path>
            <path
                d="M407.5 230 a2.5 2.5 0 1 0 5 0 a2.5 2.5 0 1 0 -5 0zM367.5 230 a2.5 2.5 0 1 0 5 0 a2.5 2.5 0 1 0 -5 0z"
                fill="black"></path>
            <path
                d="M967.5 10 a2.5 2.5 0 1 0 5 0 a2.5 2.5 0 1 0 -5 0zM947.5 190 a2.5 2.5 0 1 0 5 0 a2.5 2.5 0 1 0 -5 0z"
                fill="black"></path>
            <path
                d="M987.5 550 a2.5 2.5 0 1 0 5 0 a2.5 2.5 0 1 0 -5 0zM1087.5 550 a2.5 2.5 0 1 0 5 0 a2.5 2.5 0 1 0 -5 0z"
                fill="black"></path>
            <path d="M27.5 470 a2.5 2.5 0 1 0 5 0 a2.5 2.5 0 1 0 -5 0zM47.5 330 a2.5 2.5 0 1 0 5 0 a2.5 2.5 0 1 0 -5 0z"
                fill="black"></path>
            <path d="M547.5 70 a2.5 2.5 0 1 0 5 0 a2.5 2.5 0 1 0 -5 0zM627.5 50 a2.5 2.5 0 1 0 5 0 a2.5 2.5 0 1 0 -5 0z"
                fill="black"></path>
            <path
                d="M427.5 250 a2.5 2.5 0 1 0 5 0 a2.5 2.5 0 1 0 -5 0zM407.5 330 a2.5 2.5 0 1 0 5 0 a2.5 2.5 0 1 0 -5 0z"
                fill="black"></path>
            <path
                d="M1207.5 250 a2.5 2.5 0 1 0 5 0 a2.5 2.5 0 1 0 -5 0zM1207.5 210 a2.5 2.5 0 1 0 5 0 a2.5 2.5 0 1 0 -5 0z"
                fill="black"></path>
            <path
                d="M1367.5 510 a2.5 2.5 0 1 0 5 0 a2.5 2.5 0 1 0 -5 0zM1407.5 570 a2.5 2.5 0 1 0 5 0 a2.5 2.5 0 1 0 -5 0z"
                fill="black"></path>
            <path
                d="M647.5 270 a2.5 2.5 0 1 0 5 0 a2.5 2.5 0 1 0 -5 0zM647.5 90 a2.5 2.5 0 1 0 5 0 a2.5 2.5 0 1 0 -5 0z"
                fill="black"></path>
            <path
                d="M1067.5 170 a2.5 2.5 0 1 0 5 0 a2.5 2.5 0 1 0 -5 0zM1087.5 290 a2.5 2.5 0 1 0 5 0 a2.5 2.5 0 1 0 -5 0z"
                fill="black"></path>
            <path
                d="M1267.5 110 a2.5 2.5 0 1 0 5 0 a2.5 2.5 0 1 0 -5 0zM1147.5 110 a2.5 2.5 0 1 0 5 0 a2.5 2.5 0 1 0 -5 0z"
                fill="black"></path>
            <path
                d="M647.5 330 a2.5 2.5 0 1 0 5 0 a2.5 2.5 0 1 0 -5 0zM747.5 210 a2.5 2.5 0 1 0 5 0 a2.5 2.5 0 1 0 -5 0z"
                fill="black"></path>
            <path
                d="M1267.5 30 a2.5 2.5 0 1 0 5 0 a2.5 2.5 0 1 0 -5 0zM1227.5 90 a2.5 2.5 0 1 0 5 0 a2.5 2.5 0 1 0 -5 0z"
                fill="black"></path>
            <path
                d="M27.5 490 a2.5 2.5 0 1 0 5 0 a2.5 2.5 0 1 0 -5 0zM107.5 350 a2.5 2.5 0 1 0 5 0 a2.5 2.5 0 1 0 -5 0z"
                fill="black"></path>
            <path
                d="M327.5 510 a2.5 2.5 0 1 0 5 0 a2.5 2.5 0 1 0 -5 0zM267.5 450 a2.5 2.5 0 1 0 5 0 a2.5 2.5 0 1 0 -5 0z"
                fill="black"></path>
            <path
                d="M527.5 490 a2.5 2.5 0 1 0 5 0 a2.5 2.5 0 1 0 -5 0zM407.5 370 a2.5 2.5 0 1 0 5 0 a2.5 2.5 0 1 0 -5 0z"
                fill="black"></path>
            <path
                d="M1227.5 150 a2.5 2.5 0 1 0 5 0 a2.5 2.5 0 1 0 -5 0zM1367.5 10 a2.5 2.5 0 1 0 5 0 a2.5 2.5 0 1 0 -5 0z"
                fill="black"></path>
            <path
                d="M427.5 290 a2.5 2.5 0 1 0 5 0 a2.5 2.5 0 1 0 -5 0zM567.5 270 a2.5 2.5 0 1 0 5 0 a2.5 2.5 0 1 0 -5 0z"
                fill="black"></path>
            <path
                d="M187.5 210 a2.5 2.5 0 1 0 5 0 a2.5 2.5 0 1 0 -5 0zM227.5 210 a2.5 2.5 0 1 0 5 0 a2.5 2.5 0 1 0 -5 0z"
                fill="black"></path>
            <path
                d="M707.5 270 a2.5 2.5 0 1 0 5 0 a2.5 2.5 0 1 0 -5 0zM667.5 330 a2.5 2.5 0 1 0 5 0 a2.5 2.5 0 1 0 -5 0z"
                fill="black"></path>
            <path d="M887.5 10 a2.5 2.5 0 1 0 5 0 a2.5 2.5 0 1 0 -5 0zM887.5 70 a2.5 2.5 0 1 0 5 0 a2.5 2.5 0 1 0 -5 0z"
                fill="black"></path>
            <path
                d="M1227.5 530 a2.5 2.5 0 1 0 5 0 a2.5 2.5 0 1 0 -5 0zM1367.5 590 a2.5 2.5 0 1 0 5 0 a2.5 2.5 0 1 0 -5 0z"
                fill="black"></path>
            <path
                d="M1307.5 190 a2.5 2.5 0 1 0 5 0 a2.5 2.5 0 1 0 -5 0zM1427.5 310 a2.5 2.5 0 1 0 5 0 a2.5 2.5 0 1 0 -5 0z"
                fill="black"></path>
            <path
                d="M1047.5 370 a2.5 2.5 0 1 0 5 0 a2.5 2.5 0 1 0 -5 0zM987.5 370 a2.5 2.5 0 1 0 5 0 a2.5 2.5 0 1 0 -5 0z"
                fill="black"></path>
            <path
                d="M1287.5 90 a2.5 2.5 0 1 0 5 0 a2.5 2.5 0 1 0 -5 0zM1347.5 10 a2.5 2.5 0 1 0 5 0 a2.5 2.5 0 1 0 -5 0z"
                fill="black"></path>
            <path
                d="M887.5 210 a2.5 2.5 0 1 0 5 0 a2.5 2.5 0 1 0 -5 0zM827.5 230 a2.5 2.5 0 1 0 5 0 a2.5 2.5 0 1 0 -5 0z"
                fill="black"></path>
            <path
                d="M1107.5 430 a2.5 2.5 0 1 0 5 0 a2.5 2.5 0 1 0 -5 0zM1107.5 490 a2.5 2.5 0 1 0 5 0 a2.5 2.5 0 1 0 -5 0z"
                fill="black"></path>
            <path
                d="M627.5 550 a2.5 2.5 0 1 0 5 0 a2.5 2.5 0 1 0 -5 0zM747.5 390 a2.5 2.5 0 1 0 5 0 a2.5 2.5 0 1 0 -5 0z"
                fill="black"></path>
            <path d="M787.5 10 a2.5 2.5 0 1 0 5 0 a2.5 2.5 0 1 0 -5 0zM707.5 10 a2.5 2.5 0 1 0 5 0 a2.5 2.5 0 1 0 -5 0z"
                fill="black"></path>
            <path d="M987.5 70 a2.5 2.5 0 1 0 5 0 a2.5 2.5 0 1 0 -5 0zM987.5 10 a2.5 2.5 0 1 0 5 0 a2.5 2.5 0 1 0 -5 0z"
                fill="black"></path>
            <path
                d="M887.5 270 a2.5 2.5 0 1 0 5 0 a2.5 2.5 0 1 0 -5 0zM827.5 270 a2.5 2.5 0 1 0 5 0 a2.5 2.5 0 1 0 -5 0z"
                fill="black"></path>
            <path
                d="M1387.5 210 a2.5 2.5 0 1 0 5 0 a2.5 2.5 0 1 0 -5 0zM1427.5 170 a2.5 2.5 0 1 0 5 0 a2.5 2.5 0 1 0 -5 0z"
                fill="black"></path>
            <path
                d="M467.5 570 a2.5 2.5 0 1 0 5 0 a2.5 2.5 0 1 0 -5 0zM427.5 550 a2.5 2.5 0 1 0 5 0 a2.5 2.5 0 1 0 -5 0z"
                fill="black"></path>
            <path
                d="M107.5 110 a2.5 2.5 0 1 0 5 0 a2.5 2.5 0 1 0 -5 0zM187.5 170 a2.5 2.5 0 1 0 5 0 a2.5 2.5 0 1 0 -5 0z"
                fill="black"></path>
            <path
                d="M387.5 450 a2.5 2.5 0 1 0 5 0 a2.5 2.5 0 1 0 -5 0zM327.5 410 a2.5 2.5 0 1 0 5 0 a2.5 2.5 0 1 0 -5 0z"
                fill="black"></path>
            <path
                d="M547.5 150 a2.5 2.5 0 1 0 5 0 a2.5 2.5 0 1 0 -5 0zM607.5 70 a2.5 2.5 0 1 0 5 0 a2.5 2.5 0 1 0 -5 0z"
                fill="black"></path>
            <path
                d="M807.5 450 a2.5 2.5 0 1 0 5 0 a2.5 2.5 0 1 0 -5 0zM807.5 490 a2.5 2.5 0 1 0 5 0 a2.5 2.5 0 1 0 -5 0z"
                fill="black"></path>
            <path
                d="M347.5 290 a2.5 2.5 0 1 0 5 0 a2.5 2.5 0 1 0 -5 0zM347.5 330 a2.5 2.5 0 1 0 5 0 a2.5 2.5 0 1 0 -5 0z"
                fill="black"></path>
            <path
                d="M1367.5 90 a2.5 2.5 0 1 0 5 0 a2.5 2.5 0 1 0 -5 0zM1387.5 150 a2.5 2.5 0 1 0 5 0 a2.5 2.5 0 1 0 -5 0z"
                fill="black"></path>
            <path
                d="M1047.5 210 a2.5 2.5 0 1 0 5 0 a2.5 2.5 0 1 0 -5 0zM1047.5 290 a2.5 2.5 0 1 0 5 0 a2.5 2.5 0 1 0 -5 0z"
                fill="black"></path>
            <path d="M67.5 570 a2.5 2.5 0 1 0 5 0 a2.5 2.5 0 1 0 -5 0zM27.5 590 a2.5 2.5 0 1 0 5 0 a2.5 2.5 0 1 0 -5 0z"
                fill="black"></path>
            <path
                d="M1347.5 390 a2.5 2.5 0 1 0 5 0 a2.5 2.5 0 1 0 -5 0zM1227.5 370 a2.5 2.5 0 1 0 5 0 a2.5 2.5 0 1 0 -5 0z"
                fill="black"></path>
            <path
                d="M107.5 30 a2.5 2.5 0 1 0 5 0 a2.5 2.5 0 1 0 -5 0zM227.5 130 a2.5 2.5 0 1 0 5 0 a2.5 2.5 0 1 0 -5 0z"
                fill="black"></path>
            <path
                d="M1187.5 450 a2.5 2.5 0 1 0 5 0 a2.5 2.5 0 1 0 -5 0zM1187.5 390 a2.5 2.5 0 1 0 5 0 a2.5 2.5 0 1 0 -5 0z"
                fill="black"></path>
            <path
                d="M307.5 190 a2.5 2.5 0 1 0 5 0 a2.5 2.5 0 1 0 -5 0zM367.5 130 a2.5 2.5 0 1 0 5 0 a2.5 2.5 0 1 0 -5 0z"
                fill="black"></path>
            <path
                d="M107.5 410 a2.5 2.5 0 1 0 5 0 a2.5 2.5 0 1 0 -5 0zM107.5 370 a2.5 2.5 0 1 0 5 0 a2.5 2.5 0 1 0 -5 0z"
                fill="black"></path>
            <path d="M327.5 30 a2.5 2.5 0 1 0 5 0 a2.5 2.5 0 1 0 -5 0zM247.5 30 a2.5 2.5 0 1 0 5 0 a2.5 2.5 0 1 0 -5 0z"
                fill="black"></path>
            <path
                d="M1307.5 430 a2.5 2.5 0 1 0 5 0 a2.5 2.5 0 1 0 -5 0zM1347.5 530 a2.5 2.5 0 1 0 5 0 a2.5 2.5 0 1 0 -5 0z"
                fill="black"></path>
            <path
                d="M467.5 390 a2.5 2.5 0 1 0 5 0 a2.5 2.5 0 1 0 -5 0zM507.5 470 a2.5 2.5 0 1 0 5 0 a2.5 2.5 0 1 0 -5 0z"
                fill="black"></path>
            <path d="M87.5 170 a2.5 2.5 0 1 0 5 0 a2.5 2.5 0 1 0 -5 0zM107.5 90 a2.5 2.5 0 1 0 5 0 a2.5 2.5 0 1 0 -5 0z"
                fill="black"></path>
            <path
                d="M667.5 210 a2.5 2.5 0 1 0 5 0 a2.5 2.5 0 1 0 -5 0zM667.5 90 a2.5 2.5 0 1 0 5 0 a2.5 2.5 0 1 0 -5 0z"
                fill="black"></path>
            <path
                d="M1247.5 590 a2.5 2.5 0 1 0 5 0 a2.5 2.5 0 1 0 -5 0zM1247.5 510 a2.5 2.5 0 1 0 5 0 a2.5 2.5 0 1 0 -5 0z"
                fill="black"></path>
            <path
                d="M207.5 130 a2.5 2.5 0 1 0 5 0 a2.5 2.5 0 1 0 -5 0zM107.5 50 a2.5 2.5 0 1 0 5 0 a2.5 2.5 0 1 0 -5 0z"
                fill="black"></path>
            <path
                d="M127.5 190 a2.5 2.5 0 1 0 5 0 a2.5 2.5 0 1 0 -5 0zM27.5 190 a2.5 2.5 0 1 0 5 0 a2.5 2.5 0 1 0 -5 0z"
                fill="black"></path>
            <path
                d="M867.5 490 a2.5 2.5 0 1 0 5 0 a2.5 2.5 0 1 0 -5 0zM867.5 590 a2.5 2.5 0 1 0 5 0 a2.5 2.5 0 1 0 -5 0z"
                fill="black"></path>
            <path
                d="M1047.5 510 a2.5 2.5 0 1 0 5 0 a2.5 2.5 0 1 0 -5 0zM847.5 590 a2.5 2.5 0 1 0 5 0 a2.5 2.5 0 1 0 -5 0z"
                fill="black"></path>
            <path
                d="M307.5 510 a2.5 2.5 0 1 0 5 0 a2.5 2.5 0 1 0 -5 0zM267.5 470 a2.5 2.5 0 1 0 5 0 a2.5 2.5 0 1 0 -5 0z"
                fill="black"></path>
            <path
                d="M907.5 270 a2.5 2.5 0 1 0 5 0 a2.5 2.5 0 1 0 -5 0zM847.5 230 a2.5 2.5 0 1 0 5 0 a2.5 2.5 0 1 0 -5 0z"
                fill="black"></path>
            <path
                d="M1387.5 530 a2.5 2.5 0 1 0 5 0 a2.5 2.5 0 1 0 -5 0zM1327.5 430 a2.5 2.5 0 1 0 5 0 a2.5 2.5 0 1 0 -5 0z"
                fill="black"></path>
            <path
                d="M967.5 290 a2.5 2.5 0 1 0 5 0 a2.5 2.5 0 1 0 -5 0zM827.5 290 a2.5 2.5 0 1 0 5 0 a2.5 2.5 0 1 0 -5 0z"
                fill="black"></path>
            <path d="M27.5 250 a2.5 2.5 0 1 0 5 0 a2.5 2.5 0 1 0 -5 0zM7.5 310 a2.5 2.5 0 1 0 5 0 a2.5 2.5 0 1 0 -5 0z"
                fill="black"></path>
            <path
                d="M1027.5 110 a2.5 2.5 0 1 0 5 0 a2.5 2.5 0 1 0 -5 0zM947.5 50 a2.5 2.5 0 1 0 5 0 a2.5 2.5 0 1 0 -5 0z"
                fill="black"></path>
            <path d="M27.5 570 a2.5 2.5 0 1 0 5 0 a2.5 2.5 0 1 0 -5 0zM47.5 530 a2.5 2.5 0 1 0 5 0 a2.5 2.5 0 1 0 -5 0z"
                fill="black"></path>
            <path
                d="M1087.5 370 a2.5 2.5 0 1 0 5 0 a2.5 2.5 0 1 0 -5 0zM1127.5 350 a2.5 2.5 0 1 0 5 0 a2.5 2.5 0 1 0 -5 0z"
                fill="black"></path>
            <path
                d="M1007.5 190 a2.5 2.5 0 1 0 5 0 a2.5 2.5 0 1 0 -5 0zM1047.5 10 a2.5 2.5 0 1 0 5 0 a2.5 2.5 0 1 0 -5 0z"
                fill="black"></path>
            <path
                d="M727.5 550 a2.5 2.5 0 1 0 5 0 a2.5 2.5 0 1 0 -5 0zM687.5 570 a2.5 2.5 0 1 0 5 0 a2.5 2.5 0 1 0 -5 0z"
                fill="black"></path>
            <path
                d="M1007.5 230 a2.5 2.5 0 1 0 5 0 a2.5 2.5 0 1 0 -5 0zM967.5 210 a2.5 2.5 0 1 0 5 0 a2.5 2.5 0 1 0 -5 0z"
                fill="black"></path>
            <path
                d="M267.5 150 a2.5 2.5 0 1 0 5 0 a2.5 2.5 0 1 0 -5 0zM247.5 190 a2.5 2.5 0 1 0 5 0 a2.5 2.5 0 1 0 -5 0z"
                fill="black"></path>
            <path
                d="M1207.5 590 a2.5 2.5 0 1 0 5 0 a2.5 2.5 0 1 0 -5 0zM1147.5 590 a2.5 2.5 0 1 0 5 0 a2.5 2.5 0 1 0 -5 0z"
                fill="black"></path>
            <path
                d="M307.5 590 a2.5 2.5 0 1 0 5 0 a2.5 2.5 0 1 0 -5 0zM267.5 490 a2.5 2.5 0 1 0 5 0 a2.5 2.5 0 1 0 -5 0z"
                fill="black"></path>
            <path
                d="M1387.5 290 a2.5 2.5 0 1 0 5 0 a2.5 2.5 0 1 0 -5 0zM1367.5 230 a2.5 2.5 0 1 0 5 0 a2.5 2.5 0 1 0 -5 0z"
                fill="black"></path>
            <path
                d="M567.5 370 a2.5 2.5 0 1 0 5 0 a2.5 2.5 0 1 0 -5 0zM507.5 370 a2.5 2.5 0 1 0 5 0 a2.5 2.5 0 1 0 -5 0z"
                fill="black"></path>
            <path
                d="M1027.5 170 a2.5 2.5 0 1 0 5 0 a2.5 2.5 0 1 0 -5 0zM1047.5 130 a2.5 2.5 0 1 0 5 0 a2.5 2.5 0 1 0 -5 0z"
                fill="black"></path>
            <path
                d="M227.5 550 a2.5 2.5 0 1 0 5 0 a2.5 2.5 0 1 0 -5 0zM227.5 430 a2.5 2.5 0 1 0 5 0 a2.5 2.5 0 1 0 -5 0z"
                fill="black"></path>
            <path
                d="M967.5 530 a2.5 2.5 0 1 0 5 0 a2.5 2.5 0 1 0 -5 0zM867.5 470 a2.5 2.5 0 1 0 5 0 a2.5 2.5 0 1 0 -5 0z"
                fill="black"></path>
            <path
                d="M107.5 510 a2.5 2.5 0 1 0 5 0 a2.5 2.5 0 1 0 -5 0zM47.5 430 a2.5 2.5 0 1 0 5 0 a2.5 2.5 0 1 0 -5 0z"
                fill="black"></path>
            <path
                d="M707.5 290 a2.5 2.5 0 1 0 5 0 a2.5 2.5 0 1 0 -5 0zM747.5 230 a2.5 2.5 0 1 0 5 0 a2.5 2.5 0 1 0 -5 0z"
                fill="black"></path>
            <path d="M47.5 250 a2.5 2.5 0 1 0 5 0 a2.5 2.5 0 1 0 -5 0zM27.5 290 a2.5 2.5 0 1 0 5 0 a2.5 2.5 0 1 0 -5 0z"
                fill="black"></path>
            <path
                d="M627.5 110 a2.5 2.5 0 1 0 5 0 a2.5 2.5 0 1 0 -5 0zM627.5 150 a2.5 2.5 0 1 0 5 0 a2.5 2.5 0 1 0 -5 0z"
                fill="black"></path>
            <path d="M807.5 30 a2.5 2.5 0 1 0 5 0 a2.5 2.5 0 1 0 -5 0zM847.5 70 a2.5 2.5 0 1 0 5 0 a2.5 2.5 0 1 0 -5 0z"
                fill="black"></path>
            <path
                d="M927.5 370 a2.5 2.5 0 1 0 5 0 a2.5 2.5 0 1 0 -5 0zM847.5 310 a2.5 2.5 0 1 0 5 0 a2.5 2.5 0 1 0 -5 0z"
                fill="black"></path>
            <path
                d="M327.5 150 a2.5 2.5 0 1 0 5 0 a2.5 2.5 0 1 0 -5 0zM327.5 110 a2.5 2.5 0 1 0 5 0 a2.5 2.5 0 1 0 -5 0z"
                fill="black"></path>
            <path
                d="M447.5 230 a2.5 2.5 0 1 0 5 0 a2.5 2.5 0 1 0 -5 0zM367.5 150 a2.5 2.5 0 1 0 5 0 a2.5 2.5 0 1 0 -5 0z"
                fill="black"></path>
            <path
                d="M1187.5 30 a2.5 2.5 0 1 0 5 0 a2.5 2.5 0 1 0 -5 0zM1127.5 50 a2.5 2.5 0 1 0 5 0 a2.5 2.5 0 1 0 -5 0z"
                fill="black"></path>
            <path
                d="M1087.5 470 a2.5 2.5 0 1 0 5 0 a2.5 2.5 0 1 0 -5 0zM1047.5 430 a2.5 2.5 0 1 0 5 0 a2.5 2.5 0 1 0 -5 0z"
                fill="black"></path>
            <path
                d="M927.5 130 a2.5 2.5 0 1 0 5 0 a2.5 2.5 0 1 0 -5 0zM1027.5 10 a2.5 2.5 0 1 0 5 0 a2.5 2.5 0 1 0 -5 0z"
                fill="black"></path>
            <path d="M287.5 30 a2.5 2.5 0 1 0 5 0 a2.5 2.5 0 1 0 -5 0zM367.5 10 a2.5 2.5 0 1 0 5 0 a2.5 2.5 0 1 0 -5 0z"
                fill="black"></path>
            <path
                d="M1227.5 130 a2.5 2.5 0 1 0 5 0 a2.5 2.5 0 1 0 -5 0zM1167.5 150 a2.5 2.5 0 1 0 5 0 a2.5 2.5 0 1 0 -5 0z"
                fill="black"></path>
            <path
                d="M467.5 410 a2.5 2.5 0 1 0 5 0 a2.5 2.5 0 1 0 -5 0zM487.5 450 a2.5 2.5 0 1 0 5 0 a2.5 2.5 0 1 0 -5 0z"
                fill="black"></path>
            <path
                d="M1067.5 210 a2.5 2.5 0 1 0 5 0 a2.5 2.5 0 1 0 -5 0zM1067.5 270 a2.5 2.5 0 1 0 5 0 a2.5 2.5 0 1 0 -5 0z"
                fill="black"></path>
            <path d="M27.5 50 a2.5 2.5 0 1 0 5 0 a2.5 2.5 0 1 0 -5 0zM7.5 90 a2.5 2.5 0 1 0 5 0 a2.5 2.5 0 1 0 -5 0z"
                fill="black"></path>
            <path
                d="M747.5 490 a2.5 2.5 0 1 0 5 0 a2.5 2.5 0 1 0 -5 0zM787.5 490 a2.5 2.5 0 1 0 5 0 a2.5 2.5 0 1 0 -5 0z"
                fill="black"></path>
            <path
                d="M127.5 430 a2.5 2.5 0 1 0 5 0 a2.5 2.5 0 1 0 -5 0zM127.5 390 a2.5 2.5 0 1 0 5 0 a2.5 2.5 0 1 0 -5 0z"
                fill="black"></path>
            <path
                d="M127.5 150 a2.5 2.5 0 1 0 5 0 a2.5 2.5 0 1 0 -5 0zM147.5 190 a2.5 2.5 0 1 0 5 0 a2.5 2.5 0 1 0 -5 0z"
                fill="black"></path>
            <path
                d="M1067.5 190 a2.5 2.5 0 1 0 5 0 a2.5 2.5 0 1 0 -5 0zM1027.5 190 a2.5 2.5 0 1 0 5 0 a2.5 2.5 0 1 0 -5 0z"
                fill="black"></path>
            <path
                d="M1387.5 230 a2.5 2.5 0 1 0 5 0 a2.5 2.5 0 1 0 -5 0zM1427.5 230 a2.5 2.5 0 1 0 5 0 a2.5 2.5 0 1 0 -5 0z"
                fill="black"></path>
            <path
                d="M1427.5 370 a2.5 2.5 0 1 0 5 0 a2.5 2.5 0 1 0 -5 0zM1327.5 370 a2.5 2.5 0 1 0 5 0 a2.5 2.5 0 1 0 -5 0z"
                fill="black"></path>
            <path
                d="M447.5 170 a2.5 2.5 0 1 0 5 0 a2.5 2.5 0 1 0 -5 0zM447.5 130 a2.5 2.5 0 1 0 5 0 a2.5 2.5 0 1 0 -5 0z"
                fill="black"></path>
            <path
                d="M767.5 130 a2.5 2.5 0 1 0 5 0 a2.5 2.5 0 1 0 -5 0zM727.5 110 a2.5 2.5 0 1 0 5 0 a2.5 2.5 0 1 0 -5 0z"
                fill="black"></path>
            <path d="M207.5 90 a2.5 2.5 0 1 0 5 0 a2.5 2.5 0 1 0 -5 0zM227.5 50 a2.5 2.5 0 1 0 5 0 a2.5 2.5 0 1 0 -5 0z"
                fill="black"></path>
            <path
                d="M1307.5 290 a2.5 2.5 0 1 0 5 0 a2.5 2.5 0 1 0 -5 0zM1367.5 290 a2.5 2.5 0 1 0 5 0 a2.5 2.5 0 1 0 -5 0z"
                fill="black"></path>
            <path
                d="M167.5 350 a2.5 2.5 0 1 0 5 0 a2.5 2.5 0 1 0 -5 0zM207.5 310 a2.5 2.5 0 1 0 5 0 a2.5 2.5 0 1 0 -5 0z"
                fill="black"></path>
            <path
                d="M1287.5 390 a2.5 2.5 0 1 0 5 0 a2.5 2.5 0 1 0 -5 0zM1227.5 390 a2.5 2.5 0 1 0 5 0 a2.5 2.5 0 1 0 -5 0z"
                fill="black"></path>
            <path
                d="M667.5 490 a2.5 2.5 0 1 0 5 0 a2.5 2.5 0 1 0 -5 0zM707.5 490 a2.5 2.5 0 1 0 5 0 a2.5 2.5 0 1 0 -5 0z"
                fill="black"></path>
            <path
                d="M467.5 310 a2.5 2.5 0 1 0 5 0 a2.5 2.5 0 1 0 -5 0zM427.5 270 a2.5 2.5 0 1 0 5 0 a2.5 2.5 0 1 0 -5 0z"
                fill="black"></path>
            <path
                d="M527.5 170 a2.5 2.5 0 1 0 5 0 a2.5 2.5 0 1 0 -5 0zM507.5 90 a2.5 2.5 0 1 0 5 0 a2.5 2.5 0 1 0 -5 0z"
                fill="black"></path>
            <path
                d="M1227.5 590 a2.5 2.5 0 1 0 5 0 a2.5 2.5 0 1 0 -5 0zM1227.5 550 a2.5 2.5 0 1 0 5 0 a2.5 2.5 0 1 0 -5 0z"
                fill="black"></path>
            <path
                d="M887.5 590 a2.5 2.5 0 1 0 5 0 a2.5 2.5 0 1 0 -5 0zM887.5 490 a2.5 2.5 0 1 0 5 0 a2.5 2.5 0 1 0 -5 0z"
                fill="black"></path>
            <path
                d="M547.5 170 a2.5 2.5 0 1 0 5 0 a2.5 2.5 0 1 0 -5 0zM507.5 210 a2.5 2.5 0 1 0 5 0 a2.5 2.5 0 1 0 -5 0z"
                fill="black"></path>
            <path
                d="M1287.5 470 a2.5 2.5 0 1 0 5 0 a2.5 2.5 0 1 0 -5 0zM1267.5 430 a2.5 2.5 0 1 0 5 0 a2.5 2.5 0 1 0 -5 0z"
                fill="black"></path>
            <path
                d="M927.5 570 a2.5 2.5 0 1 0 5 0 a2.5 2.5 0 1 0 -5 0zM927.5 490 a2.5 2.5 0 1 0 5 0 a2.5 2.5 0 1 0 -5 0z"
                fill="black"></path>
            <path
                d="M607.5 490 a2.5 2.5 0 1 0 5 0 a2.5 2.5 0 1 0 -5 0zM627.5 530 a2.5 2.5 0 1 0 5 0 a2.5 2.5 0 1 0 -5 0z"
                fill="black"></path>
            <path
                d="M547.5 330 a2.5 2.5 0 1 0 5 0 a2.5 2.5 0 1 0 -5 0zM547.5 370 a2.5 2.5 0 1 0 5 0 a2.5 2.5 0 1 0 -5 0z"
                fill="black"></path>
            <path
                d="M527.5 90 a2.5 2.5 0 1 0 5 0 a2.5 2.5 0 1 0 -5 0zM527.5 150 a2.5 2.5 0 1 0 5 0 a2.5 2.5 0 1 0 -5 0z"
                fill="black"></path>
            <path
                d="M1347.5 590 a2.5 2.5 0 1 0 5 0 a2.5 2.5 0 1 0 -5 0zM1267.5 550 a2.5 2.5 0 1 0 5 0 a2.5 2.5 0 1 0 -5 0z"
                fill="black"></path>
            <path
                d="M567.5 350 a2.5 2.5 0 1 0 5 0 a2.5 2.5 0 1 0 -5 0zM567.5 310 a2.5 2.5 0 1 0 5 0 a2.5 2.5 0 1 0 -5 0z"
                fill="black"></path>
            <path
                d="M307.5 370 a2.5 2.5 0 1 0 5 0 a2.5 2.5 0 1 0 -5 0zM347.5 370 a2.5 2.5 0 1 0 5 0 a2.5 2.5 0 1 0 -5 0z"
                fill="black"></path>
            <path d="M27.5 10 a2.5 2.5 0 1 0 5 0 a2.5 2.5 0 1 0 -5 0zM47.5 50 a2.5 2.5 0 1 0 5 0 a2.5 2.5 0 1 0 -5 0z"
                fill="black"></path>
            <path
                d="M1147.5 50 a2.5 2.5 0 1 0 5 0 a2.5 2.5 0 1 0 -5 0zM1187.5 70 a2.5 2.5 0 1 0 5 0 a2.5 2.5 0 1 0 -5 0z"
                fill="black"></path>
        </mask>
    </defs>
</svg>