<svg xmlns="http://www.w3.org/2000/svg" version="1.1" xmlns:xlink="http://www.w3.org/1999/xlink"
    xmlns:svgjs="http://svgjs.dev/svgjs" width="512" height="512" preserveAspectRatio="none" viewBox="0 0 512 512">
    <g mask="url(&quot;#SvgjsMask1022&quot;)" fill="none">
        <path
            d="M284.596,230.256C319.375,231.857,354.59,220.282,373.937,191.336C395.545,159.008,403.723,115.848,383.099,82.884C363.331,51.288,321.811,46.52,284.596,48.535C251.503,50.327,219.252,63.763,202.987,92.638C186.988,121.041,191.818,155.679,208.446,183.719C224.709,211.144,252.746,228.79,284.596,230.256"
            fill="rgba(33, 171, 51, 0.3)" class="triangle-float1"></path>
        <path
            d="M488.581,353.929C533.384,355.153,572.567,323.825,592.533,283.698C610.559,247.469,600.696,205.66,579.509,171.184C559.47,138.576,526.851,115.047,488.581,114.543C449.457,114.028,412.979,134.852,393.411,168.735C373.839,202.625,376.137,243.466,394.025,278.274C413.8,316.754,445.333,352.747,488.581,353.929"
            fill="rgba(33, 171, 51, 0.3)" class="triangle-float1"></path>
        <path d="M16.02 508.62 a138.13 138.13 0 1 0 276.26 0 a138.13 138.13 0 1 0 -276.26 0z"
            fill="rgba(33, 171, 51, 0.3)" class="triangle-float3"></path>
        <path
            d="M413.97584273434074 107.16146884115L378.40205606400946 34.22439737144738 305.4649845943068 69.79818404177867 341.0387712646381 142.73525551148128z"
            fill="rgba(33, 171, 51, 0.3)" class="triangle-float2"></path>
        <path
            d="M590.0673313734828 75.82842680902027L496.5828670839223-39.61527232236055 381.13916795254147 53.86919196720001 474.623632242102 169.31289109858085z"
            fill="rgba(33, 171, 51, 0.3)" class="triangle-float3"></path>
        <path
            d="M89.976,170.515C128.98,170.542,170.921,165.204,192.361,132.621C215.641,97.241,213.646,51.008,192.914,14.078C171.731,-23.656,133.226,-51.177,89.976,-49.756C48.688,-48.399,18.323,-15.558,-1.875,20.478C-21.522,55.53,-33.147,98.21,-12.167,132.481C8.164,165.692,51.036,170.488,89.976,170.515"
            fill="rgba(33, 171, 51, 0.3)" class="triangle-float3"></path>
        <path
            d="M267.34862073655074 198.61104785088102L315.84052793299685 151.78295740228663 221.3524386618822 102.45914183191468z"
            fill="rgba(33, 171, 51, 0.3)" class="triangle-float2"></path>
        <path
            d="M568.122,597.753C621.196,600.165,667.111,563.184,692.778,516.666C717.55,471.77,718.067,417.332,692.056,373.142C666.415,329.581,618.655,303.683,568.122,304.893C519.571,306.056,476.767,335.912,454.059,378.841C432.753,419.121,440.605,465.75,461.661,506.161C484.846,550.657,518,595.475,568.122,597.753"
            fill="rgba(33, 171, 51, 0.3)" class="triangle-float2"></path>
    </g>
    <defs>
        <mask id="SvgjsMask1022">
            <rect width="512" height="512" fill="#ffffff"></rect>
        </mask>
        <style>
            @keyframes float1 {
                0% {
                    transform: translate(0, 0)
                }

                50% {
                    transform: translate(-10px, 0)
                }

                100% {
                    transform: translate(0, 0)
                }
            }

            .triangle-float1 {
                animation: float1 5s infinite;
            }

            @keyframes float2 {
                0% {
                    transform: translate(0, 0)
                }

                50% {
                    transform: translate(-5px, -5px)
                }

                100% {
                    transform: translate(0, 0)
                }
            }

            .triangle-float2 {
                animation: float2 4s infinite;
            }

            @keyframes float3 {
                0% {
                    transform: translate(0, 0)
                }

                50% {
                    transform: translate(0, -10px)
                }

                100% {
                    transform: translate(0, 0)
                }
            }

            .triangle-float3 {
                animation: float3 6s infinite;
            }
        </style>
    </defs>
</svg>