<svg id="visual" viewBox="0 0 1366 768" width="1366" height="768" xmlns="http://www.w3.org/2000/svg" xmlns:xlink="http://www.w3.org/1999/xlink" version="1.1"><rect x="0" y="0" width="1366" height="768" fill="#931C1C"></rect><path d="M0 528L195 469L390 546L585 512L781 548L976 477L1171 516L1366 502L1366 769L1171 769L976 769L781 769L585 769L390 769L195 769L0 769Z" fill="#f5730a"></path><path d="M0 528L195 540L390 552L585 514L781 514L976 529L1171 577L1366 543L1366 769L1171 769L976 769L781 769L585 769L390 769L195 769L0 769Z" fill="#da5b09"></path><path d="M0 603L195 627L390 613L585 592L781 654L976 579L1171 565L1366 588L1366 769L1171 769L976 769L781 769L585 769L390 769L195 769L0 769Z" fill="#be4407"></path><path d="M0 642L195 651L390 636L585 680L781 621L976 635L1171 694L1366 625L1366 769L1171 769L976 769L781 769L585 769L390 769L195 769L0 769Z" fill="#a32d04"></path><path d="M0 699L195 708L390 702L585 693L781 696L976 727L1171 678L1366 717L1366 769L1171 769L976 769L781 769L585 769L390 769L195 769L0 769Z" fill="#871400"></path></svg>