<svg xmlns="http://www.w3.org/2000/svg" version="1.1" xmlns:xlink="http://www.w3.org/1999/xlink" xmlns:svgjs="http://svgjs.dev/svgjs" width="1440" height="720" preserveAspectRatio="none" viewBox="0 0 1440 720">
    <g mask="url(&quot;#SvgjsMask1105&quot;)" fill="none">
        <rect width="1440" height="720" x="0" y="0" fill="rgba(255, 255, 255, 1)"></rect>
        <path d="M911.753,435.154C983.38,432.747,1038.84,380.041,1074.493,317.871C1109.926,256.084,1126.29,182.245,1092.856,119.354C1057.528,52.901,987.011,11.202,911.753,11.752C837.391,12.296,772.275,57.517,735.182,121.97C698.185,186.256,692.469,264.875,728.896,329.486C765.952,395.212,836.344,437.688,911.753,435.154" fill="rgba(62, 163, 76, 0.4)" class="triangle-float3"></path>
        <path d="M291.58 56.76 a188.35 188.35 0 1 0 376.7 0 a188.35 188.35 0 1 0 -376.7 0z" fill="rgba(62, 163, 76, 0.4)" class="triangle-float1"></path>
        <path d="M25.42 619.4 a230.62 230.62 0 1 0 461.24 0 a230.62 230.62 0 1 0 -461.24 0z" fill="rgba(62, 163, 76, 0.4)" class="triangle-float3"></path>
        <path d="M92.72310896355734 423.41068522683304L269.4321231118844 542.6024202727083 388.62385815775974 365.8934061243813 211.91484400943264 246.70167107850597z" fill="rgba(62, 163, 76, 0.4)" class="triangle-float2"></path>
        <path d="M1171.96 312.26 a160.46 160.46 0 1 0 320.92 0 a160.46 160.46 0 1 0 -320.92 0z" fill="rgba(62, 163, 76, 0.4)" class="triangle-float1"></path>
        <path d="M1003.0233746675583 322.64965408319387L813.9879851168146 242.40889184653093 733.7472228801516 431.44428139727466 922.7826124308954 511.6850436339376z" fill="rgba(62, 163, 76, 0.4)" class="triangle-float3"></path>
        <path d="M289.3094280822364 219.79885721839275L89.43936677615793 296.52178543412003 366.0323562979637 419.6689185244712z" fill="rgba(62, 163, 76, 0.4)" class="triangle-float3"></path>
        <path d="M125.62483899344424 392.51555459680276L-60.379136604346115 338.98787930322493-22.318408273018193 503.84700582805533z" fill="rgba(62, 163, 76, 0.4)" class="triangle-float3"></path>
        <path d="M1185.3127442318803 69.24623168068776L1216.88308916527 231.66157649332501 1379.298433977907 200.09123155993547 1347.7280890445174 37.67588674729821z" fill="rgba(62, 163, 76, 0.4)" class="triangle-float2"></path>
        <path d="M218.306,44.596C240.029,43.748,258.155,30.216,269.469,11.652C281.352,-7.846,289.081,-32.394,277.062,-51.809C265.439,-70.583,240.387,-70.92,218.306,-70.99C196.045,-71.061,171.342,-70.645,158.901,-52.185C145.298,-32.002,146.989,-4.806,159.721,15.937C171.91,35.795,195.023,45.505,218.306,44.596" fill="rgba(62, 163, 76, 0.4)" class="triangle-float1"></path>
        <path d="M485.3704184046821 632.4403509743908L576.1602227248286 544.9327159450595 470.74833940612643 512.705069024192z" fill="rgba(62, 163, 76, 0.4)" class="triangle-float1"></path>
        <path d="M912.71 304.74 a181.9 181.9 0 1 0 363.8 0 a181.9 181.9 0 1 0 -363.8 0z" fill="rgba(62, 163, 76, 0.4)" class="triangle-float3"></path>
    </g>
    <defs>
        <mask id="SvgjsMask1105">
            <rect width="1440" height="720" fill="#ffffff"></rect>
        </mask>
        <style>
            @keyframes float1 {
                    0%{transform: translate(0, 0)}
                    50%{transform: translate(-5px, 0)}
                    100%{transform: translate(0, 0)}
                }

                .triangle-float1 {
                    animation: float1 5s infinite;
                }

                @keyframes float2 {
                    0%{transform: translate(0, 0)}
                    50%{transform: translate(-10px, -10px)}
                    100%{transform: translate(0, 0)}
                }

                .triangle-float2 {
                    animation: float2 4s infinite;
                }

                @keyframes float3 {
                    0%{transform: translate(0, 0)}
                    50%{transform: translate(0, -15px)}
                    100%{transform: translate(0, 0)}
                }

                .triangle-float3 {
                    animation: float3 6s infinite;
                }
        </style>
    </defs>
</svg>