<svg xmlns="http://www.w3.org/2000/svg" version="1.1" xmlns:xlink="http://www.w3.org/1999/xlink" xmlns:svgjs="http://svgjs.dev/svgjs" width="1366" height="768" preserveAspectRatio="none" viewBox="0 0 1366 768"><g mask="url(&quot;#SvgjsMask1076&quot;)" fill="none"><rect width="1366" height="768" x="0" y="0" fill="rgba(21, 67, 96, 1)"></rect><path d="M0,512.695C108.807,524.546,221.667,545.155,321.456,500.195C428.007,452.188,522.032,366.714,565.117,258.08C607.465,151.303,577.679,32.531,551.269,-79.26C526.791,-182.873,487.254,-281.345,418.481,-362.616C349.145,-444.553,264.044,-519.091,159.286,-542.479C57.199,-565.27,-44.46,-522.267,-143.301,-488.037C-237.793,-455.313,-338.081,-425.23,-401.803,-348.164C-464.93,-271.818,-466.898,-166.897,-488.732,-70.269C-512.61,35.406,-577.245,144.592,-535.761,244.674C-494.184,344.979,-376.505,386.173,-279.398,434.752C-191.138,478.905,-98.108,502.01,0,512.695" fill="#103248"></path><path d="M1366 1229.5430000000001C1456.79 1247.625 1555.492 1234.033 1634.5729999999999 1185.908 1714.455 1137.296 1773.384 1055.726 1799.277 965.871 1823.5529999999999 881.628 1779.66 796.972 1771.813 709.653 1763.395 615.986 1802.4189999999999 513.034 1751.476 433.983 1699.3220000000001 353.052 1596.8220000000001 323.605 1504.796 295.303 1411.807 266.705 1313.5 243.89700000000005 1219.923 270.507 1125.978 297.222 1031.415 353.567 989.563 441.816 949.412 526.4780000000001 1005.988 622.9110000000001 1008.37 716.581 1010.2529999999999 790.625 974.5450000000001 865.436 1002.087 934.193 1030.1019999999999 1004.131 1099.879 1043.59 1158.377 1091.067 1224.305 1144.5729999999999 1282.727 1212.958 1366 1229.5430000000001" fill="#1a5478"></path></g><defs><mask id="SvgjsMask1076"><rect width="1366" height="768" fill="#ffffff"></rect></mask></defs></svg>