<svg xmlns="http://www.w3.org/2000/svg" height="40" viewBox="0 96 960 960" width="40">
    <path
        d="M513.333 442.667V249.333q0-14.166 9.583-23.75Q532.5 216 546.666 216h260.001q14.166 0 23.75 9.583 9.583 9.584 9.583 23.75v193.334q0 14.167-9.583 23.75-9.584 9.584-23.75 9.584H546.666q-14.166 0-23.75-9.584-9.583-9.583-9.583-23.75ZM120 576V249.333q0-14.166 9.583-23.75 9.584-9.583 23.75-9.583h260.001q14.166 0 23.75 9.583 9.583 9.584 9.583 23.75V576q0 14.167-9.583 23.75-9.584 9.583-23.75 9.583H153.333q-14.166 0-23.75-9.583Q120 590.167 120 576Zm393.333 326.667V576q0-14.167 9.583-23.75 9.584-9.583 23.75-9.583h260.001q14.166 0 23.75 9.583Q840 561.833 840 576v326.667q0 14.166-9.583 23.75-9.584 9.583-23.75 9.583H546.666q-14.166 0-23.75-9.583-9.583-9.584-9.583-23.75Zm-393.333 0V709.333q0-14.167 9.583-23.75 9.584-9.584 23.75-9.584h260.001q14.166 0 23.75 9.584 9.583 9.583 9.583 23.75v193.334q0 14.166-9.583 23.75Q427.5 936 413.334 936H153.333q-14.166 0-23.75-9.583-9.583-9.584-9.583-23.75Z" />
</svg>