<svg xmlns="http://www.w3.org/2000/svg" height="20" viewBox="0 -960 960 960" width="20" fill="#fff">
    <path
        d="m480-394.935 70.13 70.131q13.957 12.956 32.033 12.956t30.033-12.956q13.956-13.957 13.956-32.033t-13.956-31.033L542.065-458l71.131-71.13q13.956-13.957 13.456-32.033t-14.456-30.033q-12.718-12.717-30.913-12.717-18.196 0-30.913 12.717L480-521.065l-71.13-70.131q-12.957-12.956-31.033-12.956t-31.033 12.956q-12.717 12.718-12.717 30.913 0 18.196 12.717 31.913L416.935-458l-71.131 71.13q-12.956 12.957-12.456 31.033t13.456 31.033q13.957 11.956 31.533 11.956t30.533-11.956L480-394.935ZM280.37-111.869q-39.783 0-67.392-27.609-27.609-27.609-27.609-67.392v-504.5q-19.152 0-33.326-14.173-14.174-14.174-14.174-33.327 0-19.152 14.174-33.326t33.326-14.174h170.37q0-19.152 14.174-33.326t33.326-14.174h152.522q19.152 0 33.326 14.174t14.174 33.326h170.37q19.152 0 33.326 14.174t14.174 33.326q0 19.153-14.174 33.327-14.174 14.173-33.326 14.173v504.5q0 39.783-27.609 67.392-27.609 27.609-67.392 27.609H280.37Z" />
</svg>