<svg xmlns="http://www.w3.org/2000/svg" height="24" viewBox="0 96 960 960" width="24">
    <path
        d="m480 976-10-120h-10q-142 0-241-99t-99-241q0-142 99-241t241-99q71 0 132.5 26.5t108 73q46.5 46.5 73 108T800 516q0 152-91 272.5T480 976Zm-21-241q17 0 29-12t12-29q0-17-12-29t-29-12q-17 0-29 12t-12 29q0 17 12 29t29 12Zm1-127q11 0 20-8t12-22q2-13 11-23.5t31-32.5q18-18 30-39t12-45q0-51-34.5-76.5T460 336q-35 0-60.5 16T358 392q-7 11-2.5 23t18.5 17q10 4 20 0t18-15q8-11 19.5-18t28.5-7q27 0 40.5 15t13.5 33q0 17-10 30.5T480 498q-28 24-37.5 39T431 578q-1 12 7.5 21t21.5 9Z" />
</svg>