<svg id="visual" viewBox="0 0 512 512" width="512" height="512" xmlns="http://www.w3.org/2000/svg"
    xmlns:xlink="http://www.w3.org/1999/xlink" version="1.1">
    <rect x="0" y="0" width="512" height="512" fill="#212529"></rect>
    <path
        d="M0 347L12.2 342.7C24.3 338.3 48.7 329.7 73 323C97.3 316.3 121.7 311.7 146 313.2C170.3 314.7 194.7 322.3 219.2 328.3C243.7 334.3 268.3 338.7 292.8 328.3C317.3 318 341.7 293 366 282.5C390.3 272 414.7 276 439 283.7C463.3 291.3 487.7 302.7 499.8 308.3L512 314L512 513L499.8 513C487.7 513 463.3 513 439 513C414.7 513 390.3 513 366 513C341.7 513 317.3 513 292.8 513C268.3 513 243.7 513 219.2 513C194.7 513 170.3 513 146 513C121.7 513 97.3 513 73 513C48.7 513 24.3 513 12.2 513L0 513Z"
        fill="#ffa31a"></path>
    <path
        d="M0 297L12.2 300.3C24.3 303.7 48.7 310.3 73 310.5C97.3 310.7 121.7 304.3 146 298.8C170.3 293.3 194.7 288.7 219.2 294C243.7 299.3 268.3 314.7 292.8 315.7C317.3 316.7 341.7 303.3 366 298.5C390.3 293.7 414.7 297.3 439 296.2C463.3 295 487.7 289 499.8 286L512 283L512 513L499.8 513C487.7 513 463.3 513 439 513C414.7 513 390.3 513 366 513C341.7 513 317.3 513 292.8 513C268.3 513 243.7 513 219.2 513C194.7 513 170.3 513 146 513C121.7 513 97.3 513 73 513C48.7 513 24.3 513 12.2 513L0 513Z"
        fill="#ec9115"></path>
    <path
        d="M0 329L12.2 329.7C24.3 330.3 48.7 331.7 73 336.3C97.3 341 121.7 349 146 348.2C170.3 347.3 194.7 337.7 219.2 335.5C243.7 333.3 268.3 338.7 292.8 346.7C317.3 354.7 341.7 365.3 366 365.2C390.3 365 414.7 354 439 350.5C463.3 347 487.7 351 499.8 353L512 355L512 513L499.8 513C487.7 513 463.3 513 439 513C414.7 513 390.3 513 366 513C341.7 513 317.3 513 292.8 513C268.3 513 243.7 513 219.2 513C194.7 513 170.3 513 146 513C121.7 513 97.3 513 73 513C48.7 513 24.3 513 12.2 513L0 513Z"
        fill="#d97f11"></path>
    <path
        d="M0 398L12.2 394.5C24.3 391 48.7 384 73 378C97.3 372 121.7 367 146 363.5C170.3 360 194.7 358 219.2 360.2C243.7 362.3 268.3 368.7 292.8 376.2C317.3 383.7 341.7 392.3 366 390.7C390.3 389 414.7 377 439 374.3C463.3 371.7 487.7 378.3 499.8 381.7L512 385L512 513L499.8 513C487.7 513 463.3 513 439 513C414.7 513 390.3 513 366 513C341.7 513 317.3 513 292.8 513C268.3 513 243.7 513 219.2 513C194.7 513 170.3 513 146 513C121.7 513 97.3 513 73 513C48.7 513 24.3 513 12.2 513L0 513Z"
        fill="#c66e0c"></path>
    <path
        d="M0 432L12.2 430.2C24.3 428.3 48.7 424.7 73 421C97.3 417.3 121.7 413.7 146 411.8C170.3 410 194.7 410 219.2 406C243.7 402 268.3 394 292.8 396.5C317.3 399 341.7 412 366 411.7C390.3 411.3 414.7 397.7 439 399.2C463.3 400.7 487.7 417.3 499.8 425.7L512 434L512 513L499.8 513C487.7 513 463.3 513 439 513C414.7 513 390.3 513 366 513C341.7 513 317.3 513 292.8 513C268.3 513 243.7 513 219.2 513C194.7 513 170.3 513 146 513C121.7 513 97.3 513 73 513C48.7 513 24.3 513 12.2 513L0 513Z"
        fill="#b25e07"></path>
    <path
        d="M0 443L12.2 441.2C24.3 439.3 48.7 435.7 73 432.2C97.3 428.7 121.7 425.3 146 426.8C170.3 428.3 194.7 434.7 219.2 439.8C243.7 445 268.3 449 292.8 451C317.3 453 341.7 453 366 452.7C390.3 452.3 414.7 451.7 439 451.8C463.3 452 487.7 453 499.8 453.5L512 454L512 513L499.8 513C487.7 513 463.3 513 439 513C414.7 513 390.3 513 366 513C341.7 513 317.3 513 292.8 513C268.3 513 243.7 513 219.2 513C194.7 513 170.3 513 146 513C121.7 513 97.3 513 73 513C48.7 513 24.3 513 12.2 513L0 513Z"
        fill="#9f4e03"></path>
    <path
        d="M0 451L12.2 451C24.3 451 48.7 451 73 454.7C97.3 458.3 121.7 465.7 146 467C170.3 468.3 194.7 463.7 219.2 464.3C243.7 465 268.3 471 292.8 474.2C317.3 477.3 341.7 477.7 366 478.3C390.3 479 414.7 480 439 478.5C463.3 477 487.7 473 499.8 471L512 469L512 513L499.8 513C487.7 513 463.3 513 439 513C414.7 513 390.3 513 366 513C341.7 513 317.3 513 292.8 513C268.3 513 243.7 513 219.2 513C194.7 513 170.3 513 146 513C121.7 513 97.3 513 73 513C48.7 513 24.3 513 12.2 513L0 513Z"
        fill="#8b3f00"></path>
</svg>