<svg id="visual" viewBox="0 0 512 512" width="512" height="512" xmlns="http://www.w3.org/2000/svg"
    xmlns:xlink="http://www.w3.org/1999/xlink" version="1.1">
    <path
        d="M0 317L9.5 319C19 321 38 325 57 330.2C76 335.3 95 341.7 114 339.8C133 338 152 328 171 318.5C190 309 209 300 227.8 304.3C246.7 308.7 265.3 326.3 284.2 330.8C303 335.3 322 326.7 341 325C360 323.3 379 328.7 398 318.8C417 309 436 284 455 275.8C474 267.7 493 276.3 502.5 280.7L512 285L512 513L502.5 513C493 513 474 513 455 513C436 513 417 513 398 513C379 513 360 513 341 513C322 513 303 513 284.2 513C265.3 513 246.7 513 227.8 513C209 513 190 513 171 513C152 513 133 513 114 513C95 513 76 513 57 513C38 513 19 513 9.5 513L0 513Z"
        fill="#21ab33"></path>
    <path
        d="M0 308L9.5 313.8C19 319.7 38 331.3 57 336.7C76 342 95 341 114 344.3C133 347.7 152 355.3 171 357.5C190 359.7 209 356.3 227.8 347.5C246.7 338.7 265.3 324.3 284.2 318.7C303 313 322 316 341 326.7C360 337.3 379 355.7 398 348.3C417 341 436 308 455 303.3C474 298.7 493 322.3 502.5 334.2L512 346L512 513L502.5 513C493 513 474 513 455 513C436 513 417 513 398 513C379 513 360 513 341 513C322 513 303 513 284.2 513C265.3 513 246.7 513 227.8 513C209 513 190 513 171 513C152 513 133 513 114 513C95 513 76 513 57 513C38 513 19 513 9.5 513L0 513Z"
        fill="#209931"></path>
    <path
        d="M0 352L9.5 349C19 346 38 340 57 345.7C76 351.3 95 368.7 114 371.8C133 375 152 364 171 362.2C190 360.3 209 367.7 227.8 374.3C246.7 381 265.3 387 284.2 389.2C303 391.3 322 389.7 341 384.5C360 379.3 379 370.7 398 361.2C417 351.7 436 341.3 455 341.2C474 341 493 351 502.5 356L512 361L512 513L502.5 513C493 513 474 513 455 513C436 513 417 513 398 513C379 513 360 513 341 513C322 513 303 513 284.2 513C265.3 513 246.7 513 227.8 513C209 513 190 513 171 513C152 513 133 513 114 513C95 513 76 513 57 513C38 513 19 513 9.5 513L0 513Z"
        fill="#1f882e"></path>
    <path
        d="M0 387L9.5 390.2C19 393.3 38 399.7 57 399.3C76 399 95 392 114 387C133 382 152 379 171 382.5C190 386 209 396 227.8 389.7C246.7 383.3 265.3 360.7 284.2 350.2C303 339.7 322 341.3 341 344.7C360 348 379 353 398 360.5C417 368 436 378 455 375.5C474 373 493 358 502.5 350.5L512 343L512 513L502.5 513C493 513 474 513 455 513C436 513 417 513 398 513C379 513 360 513 341 513C322 513 303 513 284.2 513C265.3 513 246.7 513 227.8 513C209 513 190 513 171 513C152 513 133 513 114 513C95 513 76 513 57 513C38 513 19 513 9.5 513L0 513Z"
        fill="#1f772b"></path>
    <path
        d="M0 423L9.5 422.5C19 422 38 421 57 420.8C76 420.7 95 421.3 114 415.7C133 410 152 398 171 395.3C190 392.7 209 399.3 227.8 401.8C246.7 404.3 265.3 402.7 284.2 403.3C303 404 322 407 341 411C360 415 379 420 398 423.7C417 427.3 436 429.7 455 421.5C474 413.3 493 394.7 502.5 385.3L512 376L512 513L502.5 513C493 513 474 513 455 513C436 513 417 513 398 513C379 513 360 513 341 513C322 513 303 513 284.2 513C265.3 513 246.7 513 227.8 513C209 513 190 513 171 513C152 513 133 513 114 513C95 513 76 513 57 513C38 513 19 513 9.5 513L0 513Z"
        fill="#1e6727"></path>
    <path
        d="M0 404L9.5 405.3C19 406.7 38 409.3 57 416.5C76 423.7 95 435.3 114 437.2C133 439 152 431 171 428.2C190 425.3 209 427.7 227.8 431.3C246.7 435 265.3 440 284.2 439.8C303 439.7 322 434.3 341 430.3C360 426.3 379 423.7 398 419C417 414.3 436 407.7 455 403.5C474 399.3 493 397.7 502.5 396.8L512 396L512 513L502.5 513C493 513 474 513 455 513C436 513 417 513 398 513C379 513 360 513 341 513C322 513 303 513 284.2 513C265.3 513 246.7 513 227.8 513C209 513 190 513 171 513C152 513 133 513 114 513C95 513 76 513 57 513C38 513 19 513 9.5 513L0 513Z"
        fill="#1c5723"></path>
    <path
        d="M0 434L9.5 438.2C19 442.3 38 450.7 57 454.3C76 458 95 457 114 452C133 447 152 438 171 440.2C190 442.3 209 455.7 227.8 455.8C246.7 456 265.3 443 284.2 444C303 445 322 460 341 467.3C360 474.7 379 474.3 398 471C417 467.7 436 461.3 455 459.7C474 458 493 461 502.5 462.5L512 464L512 513L502.5 513C493 513 474 513 455 513C436 513 417 513 398 513C379 513 360 513 341 513C322 513 303 513 284.2 513C265.3 513 246.7 513 227.8 513C209 513 190 513 171 513C152 513 133 513 114 513C95 513 76 513 57 513C38 513 19 513 9.5 513L0 513Z"
        fill="#1a471f"></path>
    <path
        d="M0 489L9.5 487.3C19 485.7 38 482.3 57 477.7C76 473 95 467 114 467.3C133 467.7 152 474.3 171 474.8C190 475.3 209 469.7 227.8 468.8C246.7 468 265.3 472 284.2 471.5C303 471 322 466 341 469.3C360 472.7 379 484.3 398 486C417 487.7 436 479.3 455 479.2C474 479 493 487 502.5 491L512 495L512 513L502.5 513C493 513 474 513 455 513C436 513 417 513 398 513C379 513 360 513 341 513C322 513 303 513 284.2 513C265.3 513 246.7 513 227.8 513C209 513 190 513 171 513C152 513 133 513 114 513C95 513 76 513 57 513C38 513 19 513 9.5 513L0 513Z"
        fill="#18381b"></path>
</svg>