<svg xmlns="http://www.w3.org/2000/svg" height="20" viewBox="0 -960 960 960" width="20" fill="#000">
    <path
        d="M371.96-240h215.757Q603-240 613.5-250.289q10.5-10.29 10.5-25.5Q624-291 613.662-301.5 603.323-312 588.04-312H372.283Q357-312 346.5-301.711q-10.5 10.29-10.5 25.5Q336-261 346.338-250.5 356.677-240 371.96-240Zm0-144h215.757Q603-384 613.5-394.289q10.5-10.29 10.5-25.5Q624-435 613.662-445.5 603.323-456 588.04-456H372.283Q357-456 346.5-445.711q-10.5 10.29-10.5 25.5Q336-405 346.338-394.5 356.677-384 371.96-384ZM263.717-96Q234-96 213-117.15T192-168v-624q0-29.7 21.15-50.85Q234.3-864 264-864h282q14 0 27.5 5t23.5 16l150 150q11 10 16 23.5t5 27.5v474q0 29.7-21.162 50.85Q725.676-96 695.96-96H263.717ZM528-660q0 15.3 10.35 25.65Q548.7-624 564-624h132L528-792v132Z" />
</svg>