<svg xmlns="http://www.w3.org/2000/svg" height="40" viewBox="0 96 960 960" width="40">
    <path
        d="M352.666 809.333h254.668q14.166 0 23.749-9.617 9.584-9.617 9.584-23.833 0-14.216-9.584-23.716-9.583-9.5-23.749-9.5H352.666q-14.166 0-23.749 9.617-9.584 9.617-9.584 23.833 0 14.216 9.584 23.716 9.583 9.5 23.749 9.5Zm0-166.667h254.668q14.166 0 23.749-9.617 9.584-9.617 9.584-23.833 0-14.216-9.584-23.716-9.583-9.5-23.749-9.5H352.666q-14.166 0-23.749 9.617-9.584 9.617-9.584 23.833 0 14.216 9.584 23.716 9.583 9.5 23.749 9.5ZM226.666 976q-27 0-46.833-19.833T160 909.334V242.666q0-27 19.833-46.833T226.666 176h319.668q13.63 0 25.981 5.333 12.352 5.334 21.352 14.334l186.666 186.666q9 9 14.334 21.352Q800 416.036 800 429.666v479.668q0 27-19.833 46.833T733.334 976H226.666Zm314.001-576q0 14.166 9.584 23.749 9.583 9.584 23.749 9.584h159.334L540.667 242.666V400Z" />
</svg>