<svg xmlns="http://www.w3.org/2000/svg" height="20" viewBox="0 -960 960 960" width="20" fill="#fff">
    <path
        d="M777.957-595.37 597.761-775.804l47.565-47.805q25.957-25.956 61.652-26.195 35.696-.239 62.609 26.195l56.652 56.413q25.913 25.435 25.196 62.25-.718 36.816-25.674 61.772l-47.804 47.804ZM165.826-116.174q-19.152 0-33.326-14.174t-14.174-33.326v-113.543q0-9.196 3.359-17.533 3.358-8.337 10.315-15.293l406.761-406.761 180.435 180.195-406.761 406.761q-6.957 6.957-15.413 10.315-8.457 3.359-17.652 3.359H165.826Z" />
</svg>